<?xml version="1.0" encoding="UTF-8" standalone="no" ?>
<!DOCTYPE svg PUBLIC "-//W3C//DTD SVG 1.1//EN" "http://www.w3.org/Graphics/SVG/1.1/DTD/svg11.dtd">
<svg xmlns="http://www.w3.org/2000/svg" xmlns:xlink="http://www.w3.org/1999/xlink" version="1.1" width="1080" height="1080" viewBox="0 0 1080 1080" xml:space="preserve">
<desc>Created with Fabric.js 5.2.4</desc>
<defs>
</defs>
<g transform="matrix(1 0 0 1 540 540)" id="0f6ed34e-7907-4606-bae4-244de3b32bda"  >
<rect style="stroke: none; stroke-width: 1; stroke-dasharray: none; stroke-linecap: butt; stroke-dashoffset: 0; stroke-linejoin: miter; stroke-miterlimit: 4; fill: rgb(255,255,255); fill-rule: nonzero; opacity: 1;" vector-effect="non-scaling-stroke"  x="-540" y="-540" rx="0" ry="0" width="1080" height="1080" />
</g>
<g transform="matrix(1 0 0 1 540 540)" id="1a7c396f-301a-4e59-836d-ea1d4c5800e6"  >
</g>
<g transform="matrix(1.31 0 0 1.31 540 540)" id="b3a9ede5-3992-4086-9616-8f64c69c8aaa"  >
<path style="stroke: rgb(0,0,0); stroke-width: 0; stroke-dasharray: none; stroke-linecap: butt; stroke-dashoffset: 0; stroke-linejoin: miter; stroke-miterlimit: 4; fill: rgb(0,0,0); fill-rule: nonzero; opacity: 1;" vector-effect="non-scaling-stroke"  transform=" translate(-224.82, -225.44)" d="M 86.849136 324.053345 C 80.464989 314.052795 81.139977 303.063324 80.738281 292.304108 C 80.62532 289.278534 82.219948 286.814117 84.619713 285.090118 C 87.816307 282.793671 88.773514 279.702484 88.669792 275.965668 C 88.397179 266.143707 88.349335 256.314148 87.971733 246.496872 C 87.596565 236.742737 91.477997 229.069641 98.75161 222.875229 C 103.444031 218.879028 108.321381 215.077805 112.789749 210.844955 C 124.986557 199.291016 127.524261 180.297913 119.020378 165.909912 C 116.466278 161.588547 114.618103 161.367889 111.742462 165.44989 C 109.013229 169.324066 105.293396 171.049301 100.792564 171.543488 C 97.287277 171.92836 93.809311 171.624756 92.274117 167.971771 C 90.75219 164.350433 91.354927 160.692001 94.39846 157.890244 C 99.595795 153.105759 105.88868 150.569656 112.804932 149.683136 C 121.540169 148.563416 130.866196 149.241104 138.934067 146.346771 C 153.127701 141.254791 167.809097 140.315201 182.372696 138.071854 C 183.195023 137.94519 184.019348 137.814499 184.847748 137.746887 C 194.703827 136.942383 194.74353 136.945404 194.741028 127.222923 C 194.73587 107.227676 194.780151 87.231598 194.602737 67.237648 C 194.534836 59.586472 194.057892 51.92979 193.498016 44.295376 C 193.133545 39.325577 192.443985 34.390751 189.248505 30.163811 C 186.877426 27.02737 187.096298 23.99209 190.484863 21.516068 C 191.287415 20.929649 191.974838 20.18544 192.713745 19.512182 C 199.94455 12.923775 200.777344 13.097501 203.848938 22.338694 C 204.756485 25.069149 206.459137 26.389139 209.201584 26.821922 C 213.017532 27.42412 216.428589 26.310102 219.806091 24.741188 C 230.045151 19.984932 240.605896 19.122587 251.387695 22.54216 C 254.21019 23.437347 256.40506 23.103848 258.736908 21.269094 C 260.944397 19.5322 263.422913 18.082062 265.930267 16.794022 C 276.213898 11.511238 285.907562 12.598963 294.697998 20.069092 C 297.325439 22.301899 299.797363 23.62149 303.261871 22.356522 C 310.957458 19.546705 318.621826 20.203018 326.262421 22.723673 C 328.786011 23.556223 331.396118 24.123486 333.934601 24.914816 C 339.986359 26.801338 344.734528 25.330132 349.09903 20.499693 C 357.47702 11.227282 362.944458 12.259598 368.905609 23.880264 C 368.376617 24.374949 367.887421 25.156706 367.19812 25.425631 C 361.68634 27.57605 359.082428 31.948004 357.566528 37.358727 C 352.983185 53.718212 349.686127 70.341156 347.362885 87.15358 C 345.520264 100.488174 343.255127 113.803085 343.395874 127.32267 C 343.472595 134.693893 343.209656 141.894485 348.12735 148.63974 C 352.47702 154.60585 350.071289 162.594131 344.06897 167.186478 C 342.175873 168.634903 341.128754 170.268295 341.01355 172.584076 C 340.467834 183.55275 339.684021 194.515457 339.413452 205.490875 C 338.534912 241.131027 337.581177 276.781006 338.441406 312.428375 C 338.806061 327.540283 340.366425 342.622925 341.352295 357.720917 C 341.449677 359.211975 341.443268 360.729126 341.288696 362.213745 C 340.794525 366.960815 337.666443 369.967712 333.169006 370.141388 C 328.157379 370.3349 324.697113 367.83902 324.149109 362.789825 C 323.431854 356.180817 323.204224 349.513184 322.915466 342.864258 C 322.121063 324.571442 321.498932 306.270599 320.600616 287.983154 C 320.327179 282.416016 320.167358 276.774414 318.554871 270.122406 C 309.970673 277.866119 298.246979 280.780334 295.174286 293.07077 C 294.58313 295.435242 294.252625 297.549896 295.442963 299.802734 C 297.993469 304.629852 297.78653 309.758881 296.749237 314.90094 C 293.299255 332.003387 289.157074 348.98056 286.711243 366.26535 C 285.194061 376.987488 285.12851 387.838135 285.326355 398.674469 C 285.377869 401.49649 287.088318 402.800049 289.152466 404.018982 C 294.847565 407.382111 298.750549 412.134308 300.628601 418.546051 C 301.1091 420.186401 301.438171 421.784729 301.146729 423.451385 C 300.29361 428.330536 290.563324 436.952576 285.573944 437.164398 C 281.747131 437.326843 277.905609 437.45639 274.082123 437.307068 C 268.912872 437.105194 264.707947 434.921204 262.31134 430.167816 C 259.776337 425.139984 259.817108 419.893555 263.484772 415.595764 C 269.299896 408.781677 270.065033 401.293121 269.100952 392.725281 C 267.7453 380.677307 267.202271 368.537781 265.940765 356.455536 C 264.544128 343.079102 260.169952 331.396484 250.148285 322.067566 C 246.05101 318.25354 243.748215 313.596832 242.940201 307.759064 C 241.545624 297.683441 234.861206 292.902252 223.964417 293.024109 C 222.741211 294.65033 223.811676 296.194946 224.203598 297.740723 C 227.880966 312.244995 231.607407 326.736877 235.258804 341.24765 C 236.848816 347.566467 235.74913 350.342712 231.517639 351.252136 C 223.685425 352.935516 219.13681 350.780853 217.75238 344.579376 C 215.000336 332.251953 212.335922 319.904907 209.620377 307.569305 C 208.834045 303.997406 207.703339 300.473175 207.255219 296.861969 C 206.655197 292.026672 203.948547 290.006775 199.401581 289.469574 C 185.53273 287.831024 171.672226 286.118805 157.818604 284.355774 C 151.389603 283.537598 144.971359 282.614868 138.571243 281.595123 C 131.819901 280.51944 130.300323 281.290894 126.956726 287.142242 C 124.126091 292.095856 119.980911 296.072937 116.156464 300.213806 C 111.204567 305.575409 110.353889 311.643524 111.863457 318.303802 C 113.40493 325.104889 115.021027 331.902985 116.982224 338.591644 C 119.859871 348.405823 120.276237 358.248535 117.911606 368.152069 C 116.888016 372.439026 117.005188 376.7659 119.177589 380.279846 C 124.317299 388.593567 120.348015 393.76416 111.479393 399.152802 C 105.233353 402.947998 97.860741 402.466217 91.161201 399.883575 C 83.568237 396.956512 81.431114 385.07486 87.026695 379.115967 C 89.78479 376.178802 93.128685 373.997406 96.450836 371.755035 C 103.572266 366.948212 104.91893 362.755035 102.280769 354.674866 C 98.730797 343.802063 92.28331 334.392334 86.849136 324.053345 M 211.255142 183.524139 C 211.566574 191.158722 210.708221 198.829437 212.329849 206.430511 C 213.092575 210.005676 214.768539 211.652695 218.500595 212.319443 C 226.521805 213.752518 232.00087 208.56131 238.243896 205.424728 C 241.752655 203.66188 241.140594 199.770279 241.835678 196.584442 C 242.147263 195.156372 242.719421 193.639755 243.611755 192.509415 C 247.150085 188.027298 247.947891 182.904556 247.606339 177.43248 C 246.61116 161.488068 245.746124 145.534256 244.581116 129.602325 C 244.129272 123.423439 243.318451 117.160065 236.428345 114.206741 C 234.533035 113.394356 233.769913 111.491684 233.896072 109.650887 C 234.217606 104.959175 232.297943 100.904266 230.82016 96.6744 C 228.313202 89.498734 229.33699 82.835579 234.504913 77.122803 C 238.085815 73.16436 241.9608 69.430962 247.061096 67.475281 C 249.557465 66.518074 250.57518 64.885239 251.164154 62.399857 C 254.232178 49.453465 241.735916 36.009617 227.869797 37.474663 C 222.57579 38.034012 217.294678 38.97353 211.991684 39.107906 C 207.80983 39.213871 207.015594 41.068157 207.185867 44.708466 C 207.948212 61.005989 208.826691 77.305786 209.141647 93.614838 C 209.714157 123.258728 210.03923 152.906952 211.255142 183.524139 M 309.204163 82.66729 C 311.735321 89.062386 311.749786 95.401825 308.226624 101.403084 C 304.233887 108.204193 302.19104 116.17421 295.684753 121.526093 C 294.082886 122.843719 293.550903 125.597298 292.791382 127.782593 C 285.992554 147.344147 284.633728 167.435822 287.574097 187.808075 C 288.47171 194.027069 289.345459 200.39534 292.495453 206.1436 C 292.948883 203.952652 292.951569 201.820282 292.948456 199.687912 C 292.934479 190.028397 292.875275 180.368683 292.917358 170.709412 C 292.95163 162.843246 293.660889 161.850708 301.21228 159.253952 C 307.379211 157.133286 313.830933 156.319183 320.27536 155.689178 C 324.208801 155.304642 326.27002 153.622894 326.609802 149.561066 C 327.52359 138.636902 328.606415 127.726852 329.626984 116.811646 C 331.842682 93.115402 335.694397 69.709244 342.094818 46.758568 C 343.986755 39.974407 344.006012 40.021713 336.813629 39.051678 C 334.347198 38.719025 331.914368 38.134483 329.468262 37.654392 C 324.227081 36.625717 319.057831 35.871361 313.68988 37.37085 C 302.858459 40.396519 292.769714 52.546219 293.271576 62.376957 C 293.374084 64.384865 293.315063 66.664566 295.50946 67.547531 C 302.271973 70.268578 304.682037 76.937195 309.204163 82.66729 M 192.761337 156.821274 C 191.499969 154.777634 189.581284 155.497803 187.810654 155.66272 C 181.849945 156.217941 175.886719 156.750931 169.932373 157.368713 C 160.340134 158.363937 150.744431 159.338013 141.169281 160.480896 C 135.417557 161.167419 134.702637 162.328995 135.930222 168.020889 C 137.16156 173.730133 138.12883 179.528931 137.869781 185.332581 C 137.080612 203.013565 131.096848 218.455811 117.485008 230.423706 C 115.208374 232.425369 112.896446 234.523071 111.473526 238.173935 C 113.15519 237.636215 114.10376 237.403412 114.997467 237.036865 C 138.770508 227.286423 163.256592 219.864655 188.418427 214.699738 C 191.803635 214.004868 193.010971 212.301437 193.258575 208.946564 C 194.218018 195.946869 192.765854 182.974548 193.028595 169.983521 C 193.112183 165.850784 194.088348 161.686676 192.761337 156.821274 M 307.302429 213.116013 C 307.606049 219.490341 310.891235 221.881134 320.105988 221.825974 C 320.881256 204.95079 323.622131 188.14537 323.160858 171.129547 C 324.60083 180.945328 323.330383 182.939178 313.397705 185.567368 C 312.916595 185.694656 312.45639 185.93956 311.970062 186.00209 C 308.243591 186.481171 307.129944 188.70636 307.229523 192.264297 C 307.415375 198.903824 307.292847 205.551956 307.302429 213.116013 M 274.597015 156.305542 C 273.92276 150.670776 271.280823 146.164795 267.273712 142.339478 C 256.84494 150.577774 256.988159 156.549454 267.358521 165.99939 C 271.552032 163.547485 272.415924 162.470688 274.597015 156.305542 M 289.763367 104.559464 C 293.439972 102.713203 295.961365 100.027924 295.857086 95.648598 C 295.777435 92.304993 294.024963 89.890434 290.927673 88.805336 C 287.43222 87.580734 286.943359 90.871887 285.65451 92.809975 C 284.919922 93.914604 284.345886 95.127464 283.718445 96.301651 C 280.203186 102.879601 281.241608 104.530663 289.763367 104.559464 M 256.065277 96.259735 C 255.16568 94.494308 254.412369 92.633438 253.335846 90.983452 C 251.136856 87.613045 247.228867 87.487625 244.667114 90.57312 C 242.421967 93.277275 242.786316 99.342781 245.57695 101.51265 C 248.908417 104.10302 252.524124 102.951057 255.913223 101.539314 C 258.583893 100.426849 256.784393 98.524101 256.065277 96.259735 M 278.025299 173.889008 C 277.816711 172.172836 278.511597 170.320358 277.175262 168.482773 C 272.504547 172.799561 271.897461 178.170517 272.417969 183.883194 C 272.575073 185.607941 273.565338 186.55394 275.347778 186.559433 C 277.283508 186.565384 277.92807 185.323517 277.968353 183.670578 C 278.040558 180.707275 278.020355 177.741714 278.025299 173.889008 M 259.130127 72.487793 C 265.399628 60.104263 264.410339 45.580296 255.606445 41.238121 C 262.741577 54.100487 265.492767 66.027321 252.895447 77.352577 C 256.494324 76.378067 257.696747 74.817345 259.130127 72.487793 M 286.81485 75.230095 C 279.762726 66.17321 280.842651 56.881386 286.224701 47.415142 C 283.78598 49.360004 283.005798 52.048264 282.145752 54.655655 C 279.836243 61.657249 279.868134 68.657288 282.502594 75.572731 C 283.021545 76.93499 283.668671 78.525429 285.558807 78.314934 C 286.908417 78.16465 287.572632 77.257164 286.81485 75.230095 M 259.394257 170.567383 C 258.691803 169.72908 258.439819 168.408112 256.34964 168.273224 C 256.34964 172.911255 256.335236 177.495087 256.358856 182.07872 C 256.365509 183.368225 256.838867 184.487442 258.336578 184.404739 C 259.683258 184.330383 260.319183 183.256912 260.544006 182.037796 C 261.219849 178.372757 261.231384 174.746979 259.394257 170.567383 M 265.674652 82.585793 C 262.052185 80.516899 260.079681 84.072815 259.30423 85.746071 C 258.011261 88.536125 260.40036 90.96347 263.18277 93.207092 C 264.095917 89.506538 264.872589 86.359177 265.674652 82.585793 M 278.527313 84.010025 C 277.302521 83.060127 276.650879 81.2565 274.46347 81.350929 C 273.503113 85.578537 274.348206 89.314743 276.784485 92.91922 C 280.84198 88.469452 280.93042 88.102394 278.527313 84.010025 M 286.646332 119.460808 C 287.108337 118.10643 288.247498 116.960457 287.980316 115.321129 C 278.992523 120.134827 277.924469 122.506134 283.413025 126.366119 C 284.412628 124.236366 285.385681 122.163185 286.646332 119.460808 M 253.428375 125.04953 C 257.334778 120.416496 256.440094 117.575066 250.166443 115.567085 C 250.069794 119.046951 251.07692 122.066544 253.428375 125.04953 M 276.164093 131.335098 C 273.149506 134.622284 274.19455 138.029129 279.377319 141.064865 C 280.56073 137.222809 278.858643 134.375763 276.164093 131.335098 M 257.43222 139.555298 C 259.805725 137.374023 261.525543 134.971893 260.245422 131.027481 C 257.512756 133.056213 255.864853 135.365509 254.97702 138.229019 C 254.389206 140.124924 255.006256 140.779388 257.43222 139.555298 M 260.622955 108.527924 C 256.299896 111.626488 260.327484 112.220665 262.015381 113.55571 C 261.402435 111.820816 264.582489 109.420593 260.622955 108.527924 z" stroke-linecap="round" />
</g>
</svg>