<?xml version="1.0" encoding="UTF-8" standalone="no" ?>
<!DOCTYPE svg PUBLIC "-//W3C//DTD SVG 1.1//EN" "http://www.w3.org/Graphics/SVG/1.1/DTD/svg11.dtd">
<svg xmlns="http://www.w3.org/2000/svg" xmlns:xlink="http://www.w3.org/1999/xlink" version="1.1" width="1080" height="1080" viewBox="0 0 1080 1080" xml:space="preserve">
<desc>Created with Fabric.js 5.2.4</desc>
<defs>
</defs>
<rect x="0" y="0" width="100%" height="100%" fill="transparent"></rect>
<g transform="matrix(1 0 0 1 540 540)" id="612386c3-c1c3-4522-ad02-327eef615149"  >
<rect style="stroke: none; stroke-width: 1; stroke-dasharray: none; stroke-linecap: butt; stroke-dashoffset: 0; stroke-linejoin: miter; stroke-miterlimit: 4; fill: rgb(222,208,208); fill-rule: nonzero; opacity: 1;" vector-effect="non-scaling-stroke"  x="-540" y="-540" rx="0" ry="0" width="1080" height="1080" />
</g>
<g transform="matrix(1 0 0 1 540 540)" id="a1aa8aff-ad83-40da-8571-a9ce49b4777f"  >
</g>
<g transform="matrix(1 0 0 1 540 540)"  >
<g style="" vector-effect="non-scaling-stroke"   >
		<g transform="matrix(0.13 0 0 -0.13 93.37 -341)"  >
<path style="stroke: none; stroke-width: 1; stroke-dasharray: none; stroke-linecap: butt; stroke-dashoffset: 0; stroke-linejoin: miter; stroke-miterlimit: 4; fill: rgb(0,0,0); fill-rule: nonzero; opacity: 1;" vector-effect="non-scaling-stroke"  transform=" translate(-4450, -6306.96)" d="M 4414 6886 C 4341 6872 4322 6860 4237 6778 C 4184 6727 4169 6705 4156 6662 C 4143 6615 4143 6606 4156 6573 C 4165 6553 4181 6528 4193 6518 C 4224 6491 4311 6450 4338 6450 C 4371 6450 4361 6429 4319 6408 C 4265 6380 4205 6385 4126 6425 C 4068 6454 4000 6471 4000 6456 C 4000 6443 4127 6134 4151 6089 C 4208 5982 4311 5858 4405 5783 C 4489 5716 4496 5712 4511 5728 C 4520 5737 4532 5765 4539 5789 C 4560 5863 4616 5940 4757 6091 C 4857 6199 4900 6309 4900 6460 C 4900 6529 4896 6542 4857 6617 C 4789 6748 4761 6782 4675 6834 C 4632 6859 4587 6882 4576 6885 C 4517 6896 4469 6897 4414 6886 z M 4635 6396 C 4689 6361 4707 6243 4670 6163 C 4650 6118 4601 6080 4562 6080 C 4514 6080 4432 6138 4404 6192 C 4375 6248 4392 6304 4456 6360 C 4525 6420 4581 6431 4635 6396 z" stroke-linecap="round" />
</g>
		<g transform="matrix(0.13 0 0 -0.13 108.78 -334.7)"  >
<path style="stroke: none; stroke-width: 1; stroke-dasharray: none; stroke-linecap: butt; stroke-dashoffset: 0; stroke-linejoin: miter; stroke-miterlimit: 4; fill: rgb(0,0,0); fill-rule: nonzero; opacity: 1;" vector-effect="non-scaling-stroke"  transform=" translate(-4565.6, -6259.66)" d="M 4517 6322 C 4491 6294 4486 6247 4504 6211 C 4518 6186 4527 6180 4554 6180 C 4597 6180 4628 6206 4636 6247 C 4641 6274 4637 6284 4612 6310 C 4577 6344 4541 6349 4517 6322 z" stroke-linecap="round" />
</g>
		<g transform="matrix(0.13 0 0 -0.13 1.5 -219.85)"  >
<path style="stroke: none; stroke-width: 1; stroke-dasharray: none; stroke-linecap: butt; stroke-dashoffset: 0; stroke-linejoin: miter; stroke-miterlimit: 4; fill: rgb(0,0,0); fill-rule: nonzero; opacity: 1;" vector-effect="non-scaling-stroke"  transform=" translate(-3760.98, -5398.29)" d="M 3357 6296 C 3237 6251 3123 6068 3159 5978 C 3173 5941 3186 5943 3212 5986 C 3223 6005 3245 6026 3259 6031 C 3333 6059 3573 6049 3673 6014 C 3695 6006 3726 6000 3742 6000 C 3768 6000 3770 6002 3760 6020 C 3745 6049 3765 6046 3796 6015 C 3835 5975 3825 5955 3765 5955 C 3737 5955 3700 5959 3683 5964 C 3655 5970 3650 5969 3650 5953 C 3651 5942 3670 5924 3702 5905 C 3756 5873 3799 5810 3800 5761 C 3800 5718 3763 5657 3690 5582 L 3620 5510 L 3675 5516 C 3723 5522 3730 5521 3730 5505 C 3730 5473 3690 5421 3598 5336 C 3539 5282 3510 5248 3515 5240 C 3519 5233 3525 5232 3529 5236 C 3536 5246 3635 5290 3666 5297 C 3693 5303 3702 5281 3689 5238 C 3684 5220 3680 5199 3680 5193 C 3680 5175 3715 5177 3730 5195 C 3737 5203 3747 5210 3752 5210 C 3769 5210 3748 5165 3714 5130 C 3660 5073 3647 5029 3655 4933 C 3659 4887 3666 4850 3671 4850 C 3677 4850 3694 4860 3710 4872 C 3755 4905 3756 4888 3713 4825 C 3677 4770 3675 4763 3676 4691 C 3676 4610 3711 4490 3735 4490 C 3754 4490 3776 4520 3804 4583 C 3818 4615 3845 4660 3864 4684 C 3907 4736 3927 4781 3935 4846 C 3941 4890 3938 4900 3911 4940 C 3875 4993 3870 5048 3898 5073 C 3908 5083 3923 5090 3932 5090 C 3956 5090 3987 5132 4000 5180 C 4006 5205 4020 5251 4032 5283 L 4053 5340 L 4027 5378 C 4013 5398 3999 5435 3995 5460 L 3989 5505 L 4014 5478 C 4043 5445 4050 5444 4050 5468 C 4050 5479 4059 5495 4070 5505 C 4094 5526 4127 5517 4190 5471 C 4269 5414 4304 5434 4298 5532 L 4295 5595 L 4333 5598 C 4375 5602 4379 5615 4355 5673 C 4347 5693 4340 5728 4340 5750 C 4340 5772 4335 5790 4330 5790 C 4297 5790 4123 5996 4093 6070 C 4085 6089 4058 6148 4032 6200 L 3985 6295 L 3845 6295 C 3768 6295 3635 6299 3550 6303 C 3426 6309 3387 6308 3357 6296 z M 4015 6133 C 4058 6077 4079 6015 4061 5997 C 4044 5980 4022 5997 3978 6060 C 3943 6109 3930 6157 3947 6173 C 3962 6189 3981 6177 4015 6133 z" stroke-linecap="round" />
</g>
		<g transform="matrix(0.13 0 0 -0.13 -145.31 -218.24)"  >
<path style="stroke: none; stroke-width: 1; stroke-dasharray: none; stroke-linecap: butt; stroke-dashoffset: 0; stroke-linejoin: miter; stroke-miterlimit: 4; fill: rgb(0,0,0); fill-rule: nonzero; opacity: 1;" vector-effect="non-scaling-stroke"  transform=" translate(-2659.9, -5386.27)" d="M 2467 6240 C 2392 6221 2333 6181 2255 6098 C 2213 6052 2165 5990 2149 5960 C 2132 5930 2101 5876 2078 5840 C 1995 5708 1969 5480 2038 5480 C 2066 5480 2120 5518 2130 5545 C 2150 5598 2358 5893 2345 5850 C 2341 5836 2303 5760 2261 5680 C 2164 5495 2142 5441 2129 5357 C 2120 5299 2121 5285 2134 5265 C 2154 5234 2161 5234 2216 5266 C 2263 5294 2334 5371 2422 5490 C 2474 5561 2520 5611 2520 5596 C 2520 5593 2491 5532 2456 5462 C 2365 5282 2300 5112 2297 5048 C 2295 4999 2297 4995 2318 4992 C 2331 4990 2355 4994 2370 5000 C 2404 5014 2501 5117 2550 5190 C 2595 5259 2628 5293 2640 5285 C 2660 5272 2648 5234 2590 5128 C 2557 5068 2530 5016 2530 5012 C 2530 5008 2520 4987 2509 4965 C 2485 4921 2460 4838 2460 4802 C 2460 4789 2471 4768 2484 4755 C 2506 4733 2512 4732 2542 4742 C 2584 4757 2670 4845 2727 4933 C 2771 5000 2796 5012 2787 4961 C 2784 4947 2771 4895 2757 4846 C 2743 4797 2728 4733 2724 4703 C 2719 4657 2721 4645 2741 4615 C 2771 4572 2807 4555 2842 4569 C 2879 4583 2938 4637 2961 4679 C 2972 4699 2999 4744 3020 4779 L 3059 4843 L 3074 4809 C 3082 4790 3095 4737 3104 4691 C 3119 4605 3161 4525 3191 4525 C 3198 4525 3223 4553 3247 4588 C 3286 4646 3290 4657 3290 4713 C 3290 4765 3307 4883 3321 4939 C 3324 4950 3312 4954 3270 4956 C 3210 4958 3048 5001 2987 5032 C 2938 5056 2867 5154 2843 5228 C 2823 5290 2822 5396 2835 5720 C 2842 5874 2841 5890 2820 5955 C 2782 6071 2768 6100 2724 6145 C 2638 6234 2560 6263 2467 6240 z" stroke-linecap="round" />
</g>
		<g transform="matrix(0.13 0 0 -0.13 177.82 -198.59)"  >
<path style="stroke: none; stroke-width: 1; stroke-dasharray: none; stroke-linecap: butt; stroke-dashoffset: 0; stroke-linejoin: miter; stroke-miterlimit: 4; fill: rgb(0,0,0); fill-rule: nonzero; opacity: 1;" vector-effect="non-scaling-stroke"  transform=" translate(-5083.42, -5238.91)" d="M 5120 6191 C 5039 6139 4981 6054 4935 5917 C 4908 5838 4904 5772 4921 5671 C 4935 5584 4940 5520 4940 5420 C 4940 5324 4907 5190 4863 5107 C 4830 5048 4669 4893 4615 4870 C 4559 4846 4410 4835 4349 4851 C 4305 4862 4298 4862 4282 4847 C 4266 4830 4266 4827 4288 4789 C 4322 4731 4366 4623 4414 4485 C 4448 4385 4458 4365 4475 4365 C 4489 4365 4502 4379 4518 4411 C 4541 4458 4541 4458 4525 4546 C 4499 4687 4497 4710 4507 4710 C 4516 4710 4557 4623 4600 4512 C 4630 4435 4658 4382 4701 4323 C 4755 4251 4771 4244 4809 4276 C 4868 4326 4867 4403 4806 4532 C 4761 4628 4728 4732 4732 4767 L 4735 4795 L 4758 4760 C 4770 4741 4788 4705 4797 4680 C 4806 4655 4823 4622 4835 4605 C 4847 4589 4866 4557 4878 4535 C 4901 4490 4977 4414 5032 4381 C 5068 4359 5069 4359 5079 4379 C 5104 4425 5092 4493 5034 4626 C 5004 4697 4968 4780 4954 4811 C 4919 4892 4924 4948 4962 4917 C 4971 4910 4997 4867 5021 4820 C 5073 4717 5159 4591 5202 4555 C 5220 4540 5250 4520 5268 4511 C 5301 4496 5303 4496 5322 4520 C 5336 4537 5340 4554 5337 4580 C 5331 4627 5243 4837 5213 4877 C 5184 4914 5120 5057 5120 5083 C 5120 5108 5141 5104 5187 5071 C 5214 5051 5239 5018 5268 4963 C 5326 4851 5373 4791 5443 4741 C 5522 4684 5537 4681 5550 4715 C 5568 4762 5561 4793 5510 4890 C 5389 5119 5346 5230 5380 5230 C 5395 5230 5435 5183 5506 5082 C 5580 4978 5605 4955 5662 4938 C 5695 4928 5703 4929 5717 4942 C 5741 4967 5735 5050 5704 5123 C 5665 5213 5611 5374 5617 5380 C 5620 5383 5627 5377 5634 5367 C 5686 5282 5716 5247 5787 5183 C 5833 5143 5874 5110 5880 5110 C 5935 5110 5843 5340 5706 5545 C 5684 5578 5632 5650 5591 5705 C 5550 5760 5510 5823 5501 5845 C 5481 5897 5393 6065 5363 6110 C 5336 6151 5227 6220 5191 6220 C 5177 6220 5145 6207 5120 6191 z" stroke-linecap="round" />
</g>
		<g transform="matrix(0.13 0 0 -0.13 57.31 -213.08)"  >
<path style="stroke: none; stroke-width: 1; stroke-dasharray: none; stroke-linecap: butt; stroke-dashoffset: 0; stroke-linejoin: miter; stroke-miterlimit: 4; fill: rgb(0,0,0); fill-rule: nonzero; opacity: 1;" vector-effect="non-scaling-stroke"  transform=" translate(-4179.6, -5347.55)" d="M 4122 5462 C 4115 5457 4105 5426 4099 5392 C 4090 5340 4090 5326 4103 5307 C 4122 5278 4223 5225 4244 5233 C 4275 5245 4274 5287 4241 5338 C 4194 5412 4137 5471 4122 5462 z" stroke-linecap="round" />
</g>
		<g transform="matrix(0.13 0 0 -0.13 -235.33 -185.53)"  >
<path style="stroke: none; stroke-width: 1; stroke-dasharray: none; stroke-linecap: butt; stroke-dashoffset: 0; stroke-linejoin: miter; stroke-miterlimit: 4; fill: rgb(0,0,0); fill-rule: nonzero; opacity: 1;" vector-effect="non-scaling-stroke"  transform=" translate(-1984.75, -5140.95)" d="M 2058 5447 C 2051 5440 2033 5426 2017 5416 C 1983 5393 1928 5286 1888 5165 C 1851 5052 1836 4854 1864 4831 C 1889 4810 1923 4826 1957 4872 C 1999 4932 2080 5067 2080 5078 C 2080 5083 2089 5108 2100 5133 L 2120 5179 L 2099 5235 C 2078 5292 2077 5302 2096 5418 C 2101 5452 2100 5460 2087 5460 C 2078 5460 2065 5454 2058 5447 z" stroke-linecap="round" />
</g>
		<g transform="matrix(0.13 0 0 -0.13 -266.88 -178.16)"  >
<path style="stroke: none; stroke-width: 1; stroke-dasharray: none; stroke-linecap: butt; stroke-dashoffset: 0; stroke-linejoin: miter; stroke-miterlimit: 4; fill: rgb(0,0,0); fill-rule: nonzero; opacity: 1;" vector-effect="non-scaling-stroke"  transform=" translate(-1748.18, -5085.63)" d="M 1868 5390 C 1859 5384 1842 5363 1829 5342 C 1817 5322 1792 5283 1775 5255 C 1737 5196 1657 5039 1634 4978 C 1571 4808 1564 4770 1596 4770 C 1604 4770 1622 4784 1637 4801 C 1653 4818 1686 4843 1712 4856 C 1768 4884 1798 4920 1805 4969 C 1828 5119 1845 5183 1881 5258 C 1936 5374 1931 5426 1868 5390 z" stroke-linecap="round" />
</g>
		<g transform="matrix(0.13 0 0 -0.13 -212.13 -161.64)"  >
<path style="stroke: none; stroke-width: 1; stroke-dasharray: none; stroke-linecap: butt; stroke-dashoffset: 0; stroke-linejoin: miter; stroke-miterlimit: 4; fill: rgb(0,0,0); fill-rule: nonzero; opacity: 1;" vector-effect="non-scaling-stroke"  transform=" translate(-2158.81, -4961.75)" d="M 2260 5230 C 2242 5208 2215 5183 2200 5175 C 2172 5161 2141 5104 2055 4915 C 1999 4792 1994 4685 2042 4659 C 2072 4643 2102 4669 2187 4786 C 2274 4905 2289 4943 2266 4988 C 2244 5031 2246 5073 2275 5146 C 2325 5270 2318 5304 2260 5230 z" stroke-linecap="round" />
</g>
		<g transform="matrix(0.13 0 0 -0.13 46.76 -173.44)"  >
<path style="stroke: none; stroke-width: 1; stroke-dasharray: none; stroke-linecap: butt; stroke-dashoffset: 0; stroke-linejoin: miter; stroke-miterlimit: 4; fill: rgb(0,0,0); fill-rule: nonzero; opacity: 1;" vector-effect="non-scaling-stroke"  transform=" translate(-4100.47, -5050.23)" d="M 4070 5258 C 4070 5251 4043 5193 4010 5128 C 3942 4996 3938 4968 3975 4893 C 4010 4824 4027 4819 4040 4873 C 4058 4945 4081 5000 4104 5027 C 4125 5051 4128 5051 4168 5039 C 4191 5032 4215 5021 4221 5013 C 4242 4988 4253 4999 4248 5043 C 4241 5101 4217 5148 4169 5198 C 4124 5246 4070 5278 4070 5258 z" stroke-linecap="round" />
</g>
		<g transform="matrix(0.13 0 0 -0.13 -31.81 -171.41)"  >
<path style="stroke: none; stroke-width: 1; stroke-dasharray: none; stroke-linecap: butt; stroke-dashoffset: 0; stroke-linejoin: miter; stroke-miterlimit: 4; fill: rgb(0,0,0); fill-rule: nonzero; opacity: 1;" vector-effect="non-scaling-stroke"  transform=" translate(-3511.19, -5035)" d="M 3629 5213 C 3621 5204 3584 5172 3547 5143 C 3422 5043 3307 4840 3375 4840 C 3381 4840 3442 4891 3509 4953 C 3615 5050 3632 5071 3645 5113 C 3671 5200 3674 5230 3657 5230 C 3649 5230 3636 5223 3629 5213 z" stroke-linecap="round" />
</g>
		<g transform="matrix(0.13 0 0 -0.13 285.68 -131.57)"  >
<path style="stroke: none; stroke-width: 1; stroke-dasharray: none; stroke-linecap: butt; stroke-dashoffset: 0; stroke-linejoin: miter; stroke-miterlimit: 4; fill: rgb(0,0,0); fill-rule: nonzero; opacity: 1;" vector-effect="non-scaling-stroke"  transform=" translate(-5892.34, -4736.24)" d="M 5787 5026 C 5784 5018 5786 4995 5793 4975 C 5801 4948 5801 4928 5792 4894 C 5772 4818 5768 4834 5875 4527 C 5903 4448 5925 4424 5959 4435 C 6030 4457 6014 4711 5930 4895 C 5907 4946 5826 5040 5805 5040 C 5798 5040 5790 5034 5787 5026 z" stroke-linecap="round" />
</g>
		<g transform="matrix(0.13 0 0 -0.13 309.3 -132.73)"  >
<path style="stroke: none; stroke-width: 1; stroke-dasharray: none; stroke-linecap: butt; stroke-dashoffset: 0; stroke-linejoin: miter; stroke-miterlimit: 4; fill: rgb(0,0,0); fill-rule: nonzero; opacity: 1;" vector-effect="non-scaling-stroke"  transform=" translate(-6069.5, -4744.94)" d="M 5940 4998 C 5940 4991 5949 4967 5960 4945 C 5983 4898 6033 4734 6055 4635 C 6063 4597 6073 4555 6075 4543 C 6080 4522 6154 4480 6186 4480 C 6216 4480 6192 4595 6135 4725 C 6082 4845 6047 4912 6013 4955 C 5975 5004 5940 5025 5940 4998 z" stroke-linecap="round" />
</g>
		<g transform="matrix(0.13 0 0 -0.13 -28.42 -134.33)"  >
<path style="stroke: none; stroke-width: 1; stroke-dasharray: none; stroke-linecap: butt; stroke-dashoffset: 0; stroke-linejoin: miter; stroke-miterlimit: 4; fill: rgb(0,0,0); fill-rule: nonzero; opacity: 1;" vector-effect="non-scaling-stroke"  transform=" translate(-3536.62, -4756.93)" d="M 3518 4921 C 3471 4873 3459 4852 3446 4802 C 3430 4742 3426 4606 3439 4560 C 3451 4518 3481 4529 3521 4590 C 3541 4620 3576 4674 3600 4710 L 3642 4775 L 3637 4856 C 3632 4944 3619 4980 3592 4979 C 3583 4979 3549 4953 3518 4921 z" stroke-linecap="round" />
</g>
		<g transform="matrix(0.13 0 0 -0.13 46.83 -130.94)"  >
<path style="stroke: none; stroke-width: 1; stroke-dasharray: none; stroke-linecap: butt; stroke-dashoffset: 0; stroke-linejoin: miter; stroke-miterlimit: 4; fill: rgb(0,0,0); fill-rule: nonzero; opacity: 1;" vector-effect="non-scaling-stroke"  transform=" translate(-4100.99, -4731.48)" d="M 4113 4948 C 4104 4933 4071 4845 4064 4815 C 4061 4804 4051 4784 4041 4771 C 4026 4752 4020 4749 4003 4758 C 3958 4782 3959 4738 4006 4640 C 4056 4535 4054 4538 4082 4517 C 4106 4499 4109 4499 4143 4515 C 4199 4541 4231 4628 4232 4758 C 4232 4843 4218 4889 4177 4933 C 4149 4962 4126 4968 4113 4948 z" stroke-linecap="round" />
</g>
		<g transform="matrix(0.13 0 0 -0.13 -186.68 -125.63)"  >
<path style="stroke: none; stroke-width: 1; stroke-dasharray: none; stroke-linecap: butt; stroke-dashoffset: 0; stroke-linejoin: miter; stroke-miterlimit: 4; fill: rgb(0,0,0); fill-rule: nonzero; opacity: 1;" vector-effect="non-scaling-stroke"  transform=" translate(-2349.66, -4691.67)" d="M 2398 4901 C 2385 4890 2361 4878 2346 4874 C 2310 4865 2290 4833 2273 4752 C 2256 4672 2249 4524 2261 4493 C 2282 4436 2369 4486 2422 4585 C 2440 4619 2443 4643 2444 4763 C 2446 4915 2440 4933 2398 4901 z" stroke-linecap="round" />
</g>
		<g transform="matrix(0.13 0 0 -0.13 262.34 -110.07)"  >
<path style="stroke: none; stroke-width: 1; stroke-dasharray: none; stroke-linecap: butt; stroke-dashoffset: 0; stroke-linejoin: miter; stroke-miterlimit: 4; fill: rgb(0,0,0); fill-rule: nonzero; opacity: 1;" vector-effect="non-scaling-stroke"  transform=" translate(-5717.3, -4575)" d="M 5617 4753 C 5622 4659 5661 4476 5687 4426 C 5716 4369 5763 4310 5780 4310 C 5823 4310 5831 4357 5801 4436 C 5790 4464 5769 4545 5755 4616 C 5719 4795 5716 4802 5671 4823 C 5651 4832 5629 4840 5623 4840 C 5616 4840 5614 4811 5617 4753 z" stroke-linecap="round" />
</g>
		<g transform="matrix(0.13 0 0 -0.13 -249.94 -108.77)"  >
<path style="stroke: none; stroke-width: 1; stroke-dasharray: none; stroke-linecap: butt; stroke-dashoffset: 0; stroke-linejoin: miter; stroke-miterlimit: 4; fill: rgb(0,0,0); fill-rule: nonzero; opacity: 1;" vector-effect="non-scaling-stroke"  transform=" translate(-1875.19, -4565.2)" d="M 1792 4777 C 1772 4754 1740 4616 1744 4575 C 1750 4525 1805 4393 1833 4363 C 1865 4327 1887 4334 1915 4389 C 1928 4416 1944 4441 1949 4444 C 1954 4448 1971 4486 1985 4531 C 2012 4610 2012 4612 1995 4656 C 1986 4681 1980 4719 1982 4743 C 1985 4790 1996 4787 1884 4774 C 1851 4770 1830 4772 1826 4779 C 1817 4794 1805 4793 1792 4777 z" stroke-linecap="round" />
</g>
		<g transform="matrix(0.13 0 0 -0.13 -155.76 -107.97)"  >
<path style="stroke: none; stroke-width: 1; stroke-dasharray: none; stroke-linecap: butt; stroke-dashoffset: 0; stroke-linejoin: miter; stroke-miterlimit: 4; fill: rgb(0,0,0); fill-rule: nonzero; opacity: 1;" vector-effect="non-scaling-stroke"  transform=" translate(-2581.56, -4559.19)" d="M 2639 4748 C 2617 4721 2587 4699 2561 4690 C 2514 4674 2504 4660 2465 4559 C 2434 4478 2433 4437 2463 4380 C 2488 4329 2510 4321 2572 4339 C 2600 4348 2624 4368 2666 4421 L 2722 4492 L 2715 4548 C 2711 4580 2706 4645 2706 4695 C 2704 4803 2692 4812 2639 4748 z" stroke-linecap="round" />
</g>
		<g transform="matrix(0.13 0 0 -0.13 -53.04 -96.8)"  >
<path style="stroke: none; stroke-width: 1; stroke-dasharray: none; stroke-linecap: butt; stroke-dashoffset: 0; stroke-linejoin: miter; stroke-miterlimit: 4; fill: rgb(0,0,0); fill-rule: nonzero; opacity: 1;" vector-effect="non-scaling-stroke"  transform=" translate(-3351.98, -4475.48)" d="M 3373 4758 C 3329 4708 3288 4540 3286 4405 C 3284 4254 3325 4139 3366 4182 C 3372 4189 3388 4230 3400 4273 C 3422 4347 3422 4355 3410 4437 C 3399 4504 3399 4547 3407 4632 C 3421 4777 3414 4803 3373 4758 z" stroke-linecap="round" />
</g>
		<g transform="matrix(0.13 0 0 -0.13 -310.68 -31.4)"  >
<path style="stroke: none; stroke-width: 1; stroke-dasharray: none; stroke-linecap: butt; stroke-dashoffset: 0; stroke-linejoin: miter; stroke-miterlimit: 4; fill: rgb(0,0,0); fill-rule: nonzero; opacity: 1;" vector-effect="non-scaling-stroke"  transform=" translate(-1419.65, -3984.95)" d="M 1677 4743 C 1581 4642 1504 4532 1458 4430 C 1436 4381 1367 4166 1355 4110 C 1341 4044 1292 3875 1266 3809 C 1253 3773 1229 3694 1215 3634 C 1200 3574 1174 3494 1157 3455 C 1111 3351 1106 3209 1148 3210 C 1191 3211 1258 3300 1296 3405 C 1305 3433 1317 3460 1320 3465 C 1330 3479 1401 3696 1405 3723 C 1410 3762 1430 3843 1461 3945 C 1477 4000 1495 4061 1500 4080 C 1556 4294 1622 4481 1655 4520 C 1662 4528 1670 4546 1674 4560 C 1694 4631 1720 4736 1720 4748 C 1720 4766 1696 4763 1677 4743 z" stroke-linecap="round" />
</g>
		<g transform="matrix(0.13 0 0 -0.13 -212.3 -89.99)"  >
<path style="stroke: none; stroke-width: 1; stroke-dasharray: none; stroke-linecap: butt; stroke-dashoffset: 0; stroke-linejoin: miter; stroke-miterlimit: 4; fill: rgb(0,0,0); fill-rule: nonzero; opacity: 1;" vector-effect="non-scaling-stroke"  transform=" translate(-2157.47, -4424.33)" d="M 2132 4639 C 2102 4616 2072 4584 2065 4566 C 2058 4549 2049 4490 2045 4435 C 2036 4299 2036 4282 2044 4228 C 2050 4189 2056 4179 2075 4174 C 2108 4166 2137 4184 2197 4249 C 2254 4309 2287 4383 2274 4422 C 2270 4435 2254 4460 2238 4479 C 2210 4511 2209 4516 2212 4593 C 2216 4692 2208 4697 2132 4639 z" stroke-linecap="round" />
</g>
		<g transform="matrix(0.13 0 0 -0.13 -103.51 -96.64)"  >
<path style="stroke: none; stroke-width: 1; stroke-dasharray: none; stroke-linecap: butt; stroke-dashoffset: 0; stroke-linejoin: miter; stroke-miterlimit: 4; fill: rgb(0,0,0); fill-rule: nonzero; opacity: 1;" vector-effect="non-scaling-stroke"  transform=" translate(-2973.43, -4474.25)" d="M 3004 4633 C 2985 4572 2918 4511 2849 4490 C 2805 4478 2800 4469 2810 4407 C 2824 4313 2887 4280 2994 4312 C 3067 4334 3175 4463 3131 4478 C 3108 4486 3090 4512 3080 4553 C 3066 4611 3047 4644 3027 4648 C 3017 4650 3008 4644 3004 4633 z" stroke-linecap="round" />
</g>
		<g transform="matrix(0.13 0 0 -0.13 21.39 -84.9)"  >
<path style="stroke: none; stroke-width: 1; stroke-dasharray: none; stroke-linecap: butt; stroke-dashoffset: 0; stroke-linejoin: miter; stroke-miterlimit: 4; fill: rgb(0,0,0); fill-rule: nonzero; opacity: 1;" vector-effect="non-scaling-stroke"  transform=" translate(-3910.17, -4386.18)" d="M 3897 4632 C 3888 4622 3880 4610 3880 4605 C 3880 4601 3869 4583 3856 4566 C 3795 4485 3790 4451 3815 4270 C 3823 4212 3830 4162 3830 4158 C 3830 4143 3878 4120 3894 4126 C 3903 4130 3928 4167 3949 4209 C 4035 4381 4041 4458 3974 4574 C 3953 4612 3930 4645 3924 4647 C 3918 4649 3906 4642 3897 4632 z" stroke-linecap="round" />
</g>
		<g transform="matrix(0.13 0 0 -0.13 64.05 -87.11)"  >
<path style="stroke: none; stroke-width: 1; stroke-dasharray: none; stroke-linecap: butt; stroke-dashoffset: 0; stroke-linejoin: miter; stroke-miterlimit: 4; fill: rgb(0,0,0); fill-rule: nonzero; opacity: 1;" vector-effect="non-scaling-stroke"  transform=" translate(-4230.1, -4402.8)" d="M 4268 4617 C 4260 4610 4242 4587 4230 4565 C 4217 4543 4184 4500 4158 4471 C 4132 4441 4110 4411 4110 4406 C 4110 4400 4123 4359 4140 4315 C 4175 4221 4212 4180 4264 4180 C 4292 4180 4302 4187 4324 4220 C 4357 4270 4359 4353 4329 4461 C 4318 4502 4306 4554 4303 4578 C 4297 4626 4289 4635 4268 4617 z" stroke-linecap="round" />
</g>
		<g transform="matrix(0.13 0 0 -0.13 -20.85 -81.65)"  >
<path style="stroke: none; stroke-width: 1; stroke-dasharray: none; stroke-linecap: butt; stroke-dashoffset: 0; stroke-linejoin: miter; stroke-miterlimit: 4; fill: rgb(0,0,0); fill-rule: nonzero; opacity: 1;" vector-effect="non-scaling-stroke"  transform=" translate(-3593.37, -4361.79)" d="M 3580 4590 C 3547 4543 3470 4358 3470 4325 C 3470 4293 3530 4126 3547 4109 C 3573 4083 3629 4152 3696 4288 C 3720 4337 3721 4345 3710 4388 C 3697 4442 3618 4620 3608 4620 C 3604 4620 3592 4607 3580 4590 z" stroke-linecap="round" />
</g>
		<g transform="matrix(0.13 0 0 -0.13 232.42 -90.04)"  >
<path style="stroke: none; stroke-width: 1; stroke-dasharray: none; stroke-linecap: butt; stroke-dashoffset: 0; stroke-linejoin: miter; stroke-miterlimit: 4; fill: rgb(0,0,0); fill-rule: nonzero; opacity: 1;" vector-effect="non-scaling-stroke"  transform=" translate(-5492.93, -4424.72)" d="M 5401 4611 C 5374 4593 5360 4441 5381 4381 C 5388 4361 5420 4326 5464 4289 C 5528 4235 5539 4229 5575 4232 L 5615 4235 L 5613 4335 C 5611 4478 5600 4504 5509 4567 C 5431 4622 5423 4625 5401 4611 z" stroke-linecap="round" />
</g>
		<g transform="matrix(0.13 0 0 -0.13 -290.58 0.83)"  >
<path style="stroke: none; stroke-width: 1; stroke-dasharray: none; stroke-linecap: butt; stroke-dashoffset: 0; stroke-linejoin: miter; stroke-miterlimit: 4; fill: rgb(0,0,0); fill-rule: nonzero; opacity: 1;" vector-effect="non-scaling-stroke"  transform=" translate(-1570.38, -3743.23)" d="M 1691 4467 C 1686 4460 1667 4405 1650 4345 C 1633 4284 1604 4188 1585 4130 C 1567 4072 1540 3980 1525 3925 C 1510 3870 1480 3776 1458 3715 C 1437 3655 1408 3567 1395 3520 C 1381 3473 1356 3399 1339 3355 C 1313 3290 1307 3256 1303 3173 C 1297 3054 1302 3024 1331 3015 C 1370 3002 1387 3029 1473 3240 C 1503 3314 1535 3402 1544 3435 C 1597 3620 1666 3819 1706 3901 C 1761 4012 1840 4220 1840 4251 C 1840 4263 1822 4292 1800 4316 C 1778 4340 1760 4368 1760 4379 C 1760 4408 1733 4467 1716 4473 C 1708 4476 1697 4473 1691 4467 z" stroke-linecap="round" />
</g>
		<g transform="matrix(0.13 0 0 -0.13 200.89 -73.57)"  >
<path style="stroke: none; stroke-width: 1; stroke-dasharray: none; stroke-linecap: butt; stroke-dashoffset: 0; stroke-linejoin: miter; stroke-miterlimit: 4; fill: rgb(0,0,0); fill-rule: nonzero; opacity: 1;" vector-effect="non-scaling-stroke"  transform=" translate(-5256.41, -4301.21)" d="M 5177 4442 C 5154 4417 5155 4402 5186 4299 C 5207 4229 5220 4204 5251 4174 C 5281 4145 5294 4139 5314 4144 C 5355 4154 5363 4210 5336 4312 C 5315 4394 5305 4408 5248 4435 C 5219 4449 5196 4460 5195 4460 C 5194 4460 5186 4452 5177 4442 z" stroke-linecap="round" />
</g>
		<g transform="matrix(0.13 0 0 -0.13 -180.52 -70.21)"  >
<path style="stroke: none; stroke-width: 1; stroke-dasharray: none; stroke-linecap: butt; stroke-dashoffset: 0; stroke-linejoin: miter; stroke-miterlimit: 4; fill: rgb(0,0,0); fill-rule: nonzero; opacity: 1;" vector-effect="non-scaling-stroke"  transform=" translate(-2395.88, -4275.99)" d="M 2360 4398 C 2338 4362 2325 4325 2318 4278 C 2305 4185 2311 4106 2330 4102 C 2338 4101 2375 4127 2413 4161 C 2489 4230 2498 4259 2455 4300 C 2435 4319 2430 4333 2430 4375 C 2430 4421 2418 4450 2399 4450 C 2395 4450 2377 4427 2360 4398 z" stroke-linecap="round" />
</g>
		<g transform="matrix(0.13 0 0 -0.13 -88.1 -61.73)"  >
<path style="stroke: none; stroke-width: 1; stroke-dasharray: none; stroke-linecap: butt; stroke-dashoffset: 0; stroke-linejoin: miter; stroke-miterlimit: 4; fill: rgb(0,0,0); fill-rule: nonzero; opacity: 1;" vector-effect="non-scaling-stroke"  transform=" translate(-3089.04, -4212.43)" d="M 3157 4394 C 3122 4339 3095 4313 3050 4290 C 2977 4253 2953 4180 2986 4093 C 3033 3967 3067 3967 3118 4095 C 3202 4308 3221 4382 3197 4414 C 3183 4433 3181 4432 3157 4394 z" stroke-linecap="round" />
</g>
		<g transform="matrix(0.13 0 0 -0.13 -141.62 -61.76)"  >
<path style="stroke: none; stroke-width: 1; stroke-dasharray: none; stroke-linecap: butt; stroke-dashoffset: 0; stroke-linejoin: miter; stroke-miterlimit: 4; fill: rgb(0,0,0); fill-rule: nonzero; opacity: 1;" vector-effect="non-scaling-stroke"  transform=" translate(-2687.61, -4212.64)" d="M 2702 4397 C 2685 4385 2650 4351 2624 4322 L 2577 4269 L 2568 4163 C 2555 4018 2572 3982 2633 4030 C 2647 4041 2669 4067 2681 4088 C 2693 4108 2727 4151 2757 4182 C 2823 4252 2827 4290 2779 4363 C 2762 4389 2745 4412 2741 4415 C 2737 4417 2719 4409 2702 4397 z" stroke-linecap="round" />
</g>
		<g transform="matrix(0.13 0 0 -0.13 314.64 -67.96)"  >
<path style="stroke: none; stroke-width: 1; stroke-dasharray: none; stroke-linecap: butt; stroke-dashoffset: 0; stroke-linejoin: miter; stroke-miterlimit: 4; fill: rgb(0,0,0); fill-rule: nonzero; opacity: 1;" vector-effect="non-scaling-stroke"  transform=" translate(-6109.52, -4259.16)" d="M 6070 4390 C 6027 4380 6000 4347 6000 4305 C 6000 4272 6026 4243 6138 4153 C 6218 4089 6233 4115 6208 4277 C 6192 4390 6164 4412 6070 4390 z" stroke-linecap="round" />
</g>
		<g transform="matrix(0.13 0 0 -0.13 118.16 -52.7)"  >
<path style="stroke: none; stroke-width: 1; stroke-dasharray: none; stroke-linecap: butt; stroke-dashoffset: 0; stroke-linejoin: miter; stroke-miterlimit: 4; fill: rgb(0,0,0); fill-rule: nonzero; opacity: 1;" vector-effect="non-scaling-stroke"  transform=" translate(-4635.96, -4144.68)" d="M 4529 4343 C 4519 4332 4515 4297 4515 4226 L 4516 4125 L 4565 4030 C 4613 3938 4616 3935 4652 3932 C 4698 3928 4722 3952 4738 4017 C 4770 4149 4765 4170 4695 4208 C 4658 4228 4635 4251 4605 4297 C 4563 4363 4551 4370 4529 4343 z" stroke-linecap="round" />
</g>
		<g transform="matrix(0.13 0 0 -0.13 164.68 -55.37)"  >
<path style="stroke: none; stroke-width: 1; stroke-dasharray: none; stroke-linecap: butt; stroke-dashoffset: 0; stroke-linejoin: miter; stroke-miterlimit: 4; fill: rgb(0,0,0); fill-rule: nonzero; opacity: 1;" vector-effect="non-scaling-stroke"  transform=" translate(-4984.87, -4164.74)" d="M 4907 4343 C 4904 4338 4899 4319 4895 4300 C 4891 4281 4877 4238 4863 4206 C 4846 4165 4840 4137 4844 4115 C 4855 4056 4963 3980 5035 3980 C 5110 3980 5141 4056 5121 4194 C 5115 4232 5113 4267 5115 4271 C 5121 4280 5083 4290 5036 4290 C 5008 4290 4989 4298 4963 4320 C 4929 4350 4915 4356 4907 4343 z" stroke-linecap="round" />
</g>
		<g transform="matrix(0.13 0 0 -0.13 366.81 -10.58)"  >
<path style="stroke: none; stroke-width: 1; stroke-dasharray: none; stroke-linecap: butt; stroke-dashoffset: 0; stroke-linejoin: miter; stroke-miterlimit: 4; fill: rgb(0,0,0); fill-rule: nonzero; opacity: 1;" vector-effect="non-scaling-stroke"  transform=" translate(-6500.83, -3828.81)" d="M 6254 4336 C 6250 4326 6255 4302 6263 4282 C 6289 4221 6292 4184 6279 4089 C 6268 4004 6268 3998 6287 3971 C 6299 3956 6322 3915 6340 3879 C 6358 3844 6387 3790 6405 3760 C 6423 3730 6466 3656 6502 3595 C 6538 3535 6570 3478 6572 3469 C 6575 3461 6599 3422 6624 3382 C 6675 3304 6695 3295 6730 3330 C 6757 3357 6755 3401 6726 3486 C 6689 3590 6659 3664 6648 3677 C 6643 3684 6623 3722 6603 3762 C 6584 3802 6519 3927 6458 4040 C 6397 4153 6338 4263 6326 4284 C 6314 4305 6295 4330 6283 4338 C 6263 4351 6260 4350 6254 4336 z" stroke-linecap="round" />
</g>
		<g transform="matrix(0.13 0 0 -0.13 -266.5 25.03)"  >
<path style="stroke: none; stroke-width: 1; stroke-dasharray: none; stroke-linecap: butt; stroke-dashoffset: 0; stroke-linejoin: miter; stroke-miterlimit: 4; fill: rgb(0,0,0); fill-rule: nonzero; opacity: 1;" vector-effect="non-scaling-stroke"  transform=" translate(-1751, -3561.75)" d="M 1936 4278 C 1917 4243 1881 4154 1856 4080 C 1770 3820 1713 3664 1661 3540 C 1632 3471 1593 3374 1575 3324 C 1557 3274 1524 3197 1502 3154 C 1455 3060 1420 2929 1420 2848 C 1420 2772 1434 2767 1504 2813 C 1584 2866 1664 2994 1715 3150 C 1725 3180 1736 3210 1740 3215 C 1744 3221 1751 3241 1755 3260 C 1766 3310 1961 3793 2027 3933 L 2082 4050 L 2040 4133 C 2010 4194 1997 4232 1993 4278 C 1990 4312 1984 4340 1979 4340 C 1975 4340 1955 4312 1936 4278 z" stroke-linecap="round" />
</g>
		<g transform="matrix(0.13 0 0 -0.13 292.02 -54.85)"  >
<path style="stroke: none; stroke-width: 1; stroke-dasharray: none; stroke-linecap: butt; stroke-dashoffset: 0; stroke-linejoin: miter; stroke-miterlimit: 4; fill: rgb(0,0,0); fill-rule: nonzero; opacity: 1;" vector-effect="non-scaling-stroke"  transform=" translate(-5939.94, -4160.84)" d="M 5869 4313 C 5844 4249 5896 4096 5970 4009 C 5995 3980 6001 3977 6010 3990 C 6027 4013 6014 4069 5971 4161 C 5949 4208 5925 4267 5918 4293 C 5904 4346 5885 4354 5869 4313 z" stroke-linecap="round" />
</g>
		<g transform="matrix(0.13 0 0 -0.13 -115.9 -53.26)"  >
<path style="stroke: none; stroke-width: 1; stroke-dasharray: none; stroke-linecap: butt; stroke-dashoffset: 0; stroke-linejoin: miter; stroke-miterlimit: 4; fill: rgb(0,0,0); fill-rule: nonzero; opacity: 1;" vector-effect="non-scaling-stroke"  transform=" translate(-2880.52, -4148.93)" d="M 2859 4245 C 2826 4227 2821 4215 2814 4132 C 2805 4012 2835 4010 2907 4126 C 2960 4211 2962 4254 2915 4257 C 2899 4259 2873 4253 2859 4245 z" stroke-linecap="round" />
</g>
		<g transform="matrix(0.13 0 0 -0.13 60.12 -32.61)"  >
<path style="stroke: none; stroke-width: 1; stroke-dasharray: none; stroke-linecap: butt; stroke-dashoffset: 0; stroke-linejoin: miter; stroke-miterlimit: 4; fill: rgb(0,0,0); fill-rule: nonzero; opacity: 1;" vector-effect="non-scaling-stroke"  transform=" translate(-4200.64, -3994.03)" d="M 4040 4234 C 4034 4220 4030 4207 4030 4205 C 4030 4202 4011 4161 3988 4113 L 3947 4025 L 3959 3935 C 3973 3836 4003 3754 4031 3740 C 4041 3734 4060 3730 4074 3730 C 4096 3730 4105 3742 4140 3818 C 4163 3866 4185 3927 4189 3953 C 4194 3980 4204 4008 4212 4016 C 4225 4029 4228 4028 4241 4013 C 4250 4003 4271 3956 4290 3908 C 4337 3783 4356 3774 4408 3850 C 4452 3915 4462 3973 4449 4090 C 4443 4148 4434 4209 4431 4225 C 4421 4268 4390 4265 4368 4219 C 4347 4173 4264 4100 4234 4100 C 4203 4100 4154 4144 4113 4207 C 4076 4265 4055 4273 4040 4234 z" stroke-linecap="round" />
</g>
		<g transform="matrix(0.13 0 0 -0.13 -68.81 -41.18)"  >
<path style="stroke: none; stroke-width: 1; stroke-dasharray: none; stroke-linecap: butt; stroke-dashoffset: 0; stroke-linejoin: miter; stroke-miterlimit: 4; fill: rgb(0,0,0); fill-rule: nonzero; opacity: 1;" vector-effect="non-scaling-stroke"  transform=" translate(-3233.7, -4058.32)" d="M 3223 4243 C 3216 4241 3210 4229 3210 4217 C 3209 4205 3196 4161 3180 4120 C 3150 4045 3150 4045 3166 3980 C 3174 3944 3183 3905 3186 3892 C 3195 3848 3231 3869 3274 3945 C 3320 4025 3323 4068 3290 4165 C 3263 4243 3253 4256 3223 4243 z" stroke-linecap="round" />
</g>
		<g transform="matrix(0.13 0 0 -0.13 -0.66 -28.93)"  >
<path style="stroke: none; stroke-width: 1; stroke-dasharray: none; stroke-linecap: butt; stroke-dashoffset: 0; stroke-linejoin: miter; stroke-miterlimit: 4; fill: rgb(0,0,0); fill-rule: nonzero; opacity: 1;" vector-effect="non-scaling-stroke"  transform=" translate(-3744.83, -3966.41)" d="M 3735 4204 C 3726 4179 3712 4156 3704 4153 C 3676 4143 3632 4056 3626 3997 C 3619 3930 3640 3833 3673 3779 C 3685 3759 3704 3729 3715 3711 C 3746 3662 3765 3674 3818 3770 C 3863 3853 3865 3857 3865 3945 C 3865 4029 3863 4039 3834 4086 C 3817 4113 3795 4162 3786 4193 C 3777 4224 3766 4250 3761 4250 C 3756 4250 3745 4229 3735 4204 z" stroke-linecap="round" />
</g>
		<g transform="matrix(0.13 0 0 -0.13 268.26 -35.7)"  >
<path style="stroke: none; stroke-width: 1; stroke-dasharray: none; stroke-linecap: butt; stroke-dashoffset: 0; stroke-linejoin: miter; stroke-miterlimit: 4; fill: rgb(0,0,0); fill-rule: nonzero; opacity: 1;" vector-effect="non-scaling-stroke"  transform=" translate(-5761.73, -4017.22)" d="M 5686 4238 C 5684 4231 5677 4187 5670 4140 C 5655 4028 5667 3988 5750 3884 C 5815 3801 5827 3790 5848 3790 C 5865 3790 5863 3830 5837 4006 L 5814 4157 L 5776 4191 C 5722 4238 5691 4255 5686 4238 z" stroke-linecap="round" />
</g>
		<g transform="matrix(0.13 0 0 -0.13 239.11 -28.32)"  >
<path style="stroke: none; stroke-width: 1; stroke-dasharray: none; stroke-linecap: butt; stroke-dashoffset: 0; stroke-linejoin: miter; stroke-miterlimit: 4; fill: rgb(0,0,0); fill-rule: nonzero; opacity: 1;" vector-effect="non-scaling-stroke"  transform=" translate(-5543.11, -3961.87)" d="M 5435 4179 C 5431 4174 5429 4135 5429 4093 C 5430 4026 5435 4007 5471 3926 C 5519 3822 5562 3755 5590 3740 C 5623 3723 5648 3744 5655 3794 C 5661 3833 5656 3860 5625 3960 C 5624 3963 5620 3972 5617 3980 C 5613 3988 5603 4015 5595 4040 C 5572 4106 5554 4129 5510 4146 C 5489 4155 5469 4168 5466 4176 C 5460 4193 5444 4194 5435 4179 z" stroke-linecap="round" />
</g>
		<g transform="matrix(0.13 0 0 -0.13 -35.13 -21.27)"  >
<path style="stroke: none; stroke-width: 1; stroke-dasharray: none; stroke-linecap: butt; stroke-dashoffset: 0; stroke-linejoin: miter; stroke-miterlimit: 4; fill: rgb(0,0,0); fill-rule: nonzero; opacity: 1;" vector-effect="non-scaling-stroke"  transform=" translate(-3486.31, -3908.95)" d="M 3447 4165 C 3429 4147 3406 4072 3390 3979 C 3377 3907 3375 3918 3437 3750 C 3453 3709 3470 3666 3477 3655 C 3488 3637 3491 3637 3503 3650 C 3525 3672 3590 3883 3590 3930 C 3590 3980 3571 4026 3536 4063 C 3522 4078 3508 4103 3504 4118 C 3493 4175 3473 4191 3447 4165 z" stroke-linecap="round" />
</g>
		<g transform="matrix(0.13 0 0 -0.13 -237.44 49.98)"  >
<path style="stroke: none; stroke-width: 1; stroke-dasharray: none; stroke-linecap: butt; stroke-dashoffset: 0; stroke-linejoin: miter; stroke-miterlimit: 4; fill: rgb(0,0,0); fill-rule: nonzero; opacity: 1;" vector-effect="non-scaling-stroke"  transform=" translate(-1968.99, -3374.59)" d="M 2172 4093 C 2127 4029 2060 3889 2030 3795 C 1984 3653 1945 3543 1920 3485 C 1908 3458 1892 3413 1885 3385 C 1867 3321 1771 3036 1736 2945 C 1704 2863 1672 2654 1689 2637 C 1707 2619 1767 2655 1803 2705 C 1820 2731 1848 2786 1863 2828 C 1895 2916 2012 3273 2041 3370 C 2107 3594 2172 3771 2221 3870 C 2258 3942 2263 4004 2239 4075 C 2222 4124 2199 4130 2172 4093 z" stroke-linecap="round" />
</g>
		<g transform="matrix(0.13 0 0 -0.13 -159.02 22.31)"  >
<path style="stroke: none; stroke-width: 1; stroke-dasharray: none; stroke-linecap: butt; stroke-dashoffset: 0; stroke-linejoin: miter; stroke-miterlimit: 4; fill: rgb(0,0,0); fill-rule: nonzero; opacity: 1;" vector-effect="non-scaling-stroke"  transform=" translate(-2557.13, -3582.09)" d="M 2739 4098 C 2732 4085 2709 4055 2687 4030 C 2629 3963 2523 3799 2486 3717 C 2421 3576 2363 3374 2346 3235 C 2337 3164 2328 3096 2325 3085 C 2323 3074 2325 3058 2331 3050 C 2339 3038 2348 3043 2381 3080 C 2490 3201 2542 3318 2595 3554 C 2602 3587 2644 3686 2689 3774 C 2772 3941 2789 3992 2790 4073 C 2790 4113 2787 4120 2770 4120 C 2760 4120 2745 4110 2739 4098 z" stroke-linecap="round" />
</g>
		<g transform="matrix(0.13 0 0 -0.13 347.28 23.78)"  >
<path style="stroke: none; stroke-width: 1; stroke-dasharray: none; stroke-linecap: butt; stroke-dashoffset: 0; stroke-linejoin: miter; stroke-miterlimit: 4; fill: rgb(0,0,0); fill-rule: nonzero; opacity: 1;" vector-effect="non-scaling-stroke"  transform=" translate(-6354.32, -3571.13)" d="M 6045 4063 C 6049 4031 6056 3997 6062 3987 C 6067 3977 6078 3944 6086 3914 C 6094 3884 6126 3819 6159 3767 C 6191 3717 6243 3631 6274 3577 C 6357 3433 6380 3395 6482 3240 C 6524 3177 6568 3106 6579 3082 C 6599 3042 6640 3013 6660 3025 C 6664 3028 6667 3065 6666 3109 C 6665 3196 6658 3212 6536 3403 C 6504 3453 6457 3531 6432 3575 C 6354 3716 6268 3873 6236 3935 C 6219 3968 6186 4014 6163 4037 C 6122 4079 6064 4120 6046 4120 C 6042 4120 6041 4094 6045 4063 z" stroke-linecap="round" />
</g>
		<g transform="matrix(0.13 0 0 -0.13 -203.04 38.3)"  >
<path style="stroke: none; stroke-width: 1; stroke-dasharray: none; stroke-linecap: butt; stroke-dashoffset: 0; stroke-linejoin: miter; stroke-miterlimit: 4; fill: rgb(0,0,0); fill-rule: nonzero; opacity: 1;" vector-effect="non-scaling-stroke"  transform=" translate(-2226.97, -3462.23)" d="M 2460 4086 C 2455 4073 2439 4054 2425 4043 C 2329 3977 2324 3968 2230 3705 C 2199 3617 2143 3462 2106 3360 C 2069 3258 2028 3132 2014 3080 C 2001 3028 1981 2961 1970 2932 C 1946 2869 1945 2837 1965 2820 C 1978 2809 1986 2811 2013 2830 C 2080 2880 2131 2958 2164 3064 C 2179 3111 2211 3198 2236 3256 C 2260 3315 2280 3370 2280 3379 C 2281 3414 2338 3561 2386 3650 C 2454 3776 2490 3878 2500 3973 C 2512 4079 2486 4152 2460 4086 z" stroke-linecap="round" />
</g>
		<g transform="matrix(0.13 0 0 -0.13 206.39 -16.76)"  >
<path style="stroke: none; stroke-width: 1; stroke-dasharray: none; stroke-linecap: butt; stroke-dashoffset: 0; stroke-linejoin: miter; stroke-miterlimit: 4; fill: rgb(0,0,0); fill-rule: nonzero; opacity: 1;" vector-effect="non-scaling-stroke"  transform=" translate(-5297.67, -3875.16)" d="M 5200 4076 C 5180 4051 5182 3903 5204 3837 C 5219 3791 5235 3769 5282 3725 C 5340 3671 5378 3652 5399 3665 C 5416 3675 5413 3694 5380 3788 C 5364 3836 5346 3903 5341 3938 C 5330 4004 5307 4047 5266 4074 C 5235 4094 5216 4094 5200 4076 z" stroke-linecap="round" />
</g>
		<g transform="matrix(0.13 0 0 -0.13 -129.87 10.67)"  >
<path style="stroke: none; stroke-width: 1; stroke-dasharray: none; stroke-linecap: butt; stroke-dashoffset: 0; stroke-linejoin: miter; stroke-miterlimit: 4; fill: rgb(0,0,0); fill-rule: nonzero; opacity: 1;" vector-effect="non-scaling-stroke"  transform=" translate(-2775.77, -3669.41)" d="M 2909 4033 C 2889 4009 2825 3914 2769 3825 C 2709 3729 2646 3552 2625 3416 C 2605 3295 2609 3285 2665 3296 C 2708 3305 2716 3316 2740 3405 C 2762 3483 2810 3589 2884 3718 C 2916 3775 2920 3792 2931 3905 C 2944 4036 2938 4068 2909 4033 z" stroke-linecap="round" />
</g>
		<g transform="matrix(0.13 0 0 -0.13 -97.98 -23.44)"  >
<path style="stroke: none; stroke-width: 1; stroke-dasharray: none; stroke-linecap: butt; stroke-dashoffset: 0; stroke-linejoin: miter; stroke-miterlimit: 4; fill: rgb(0,0,0); fill-rule: nonzero; opacity: 1;" vector-effect="non-scaling-stroke"  transform=" translate(-3014.93, -3925.23)" d="M 2987 3983 C 2974 3970 2980 3883 2995 3870 C 3019 3850 3050 3867 3050 3901 C 3050 3955 3010 4007 2987 3983 z" stroke-linecap="round" />
</g>
		<g transform="matrix(0.13 0 0 -0.13 150.46 13.58)"  >
<path style="stroke: none; stroke-width: 1; stroke-dasharray: none; stroke-linecap: butt; stroke-dashoffset: 0; stroke-linejoin: miter; stroke-miterlimit: 4; fill: rgb(0,0,0); fill-rule: nonzero; opacity: 1;" vector-effect="non-scaling-stroke"  transform=" translate(-4878.17, -3647.63)" d="M 4815 3956 C 4799 3944 4797 3931 4803 3809 C 4808 3686 4830 3552 4872 3392 C 4884 3347 4922 3318 4943 3339 C 4963 3359 4961 3438 4935 3560 C 4921 3629 4904 3716 4899 3755 C 4893 3793 4882 3840 4874 3859 C 4866 3877 4860 3905 4860 3920 C 4860 3957 4839 3974 4815 3956 z" stroke-linecap="round" />
</g>
		<g transform="matrix(0.13 0 0 -0.13 -60.61 4.41)"  >
<path style="stroke: none; stroke-width: 1; stroke-dasharray: none; stroke-linecap: butt; stroke-dashoffset: 0; stroke-linejoin: miter; stroke-miterlimit: 4; fill: rgb(0,0,0); fill-rule: nonzero; opacity: 1;" vector-effect="non-scaling-stroke"  transform=" translate(-3295.17, -3716.35)" d="M 3323 3918 C 3292 3877 3226 3700 3222 3646 C 3217 3588 3236 3529 3265 3508 C 3278 3498 3310 3536 3310 3561 C 3310 3571 3324 3614 3341 3657 C 3370 3728 3372 3742 3367 3819 C 3362 3905 3344 3945 3323 3918 z" stroke-linecap="round" />
</g>
		<g transform="matrix(0.13 0 0 -0.13 119.16 0.64)"  >
<path style="stroke: none; stroke-width: 1; stroke-dasharray: none; stroke-linecap: butt; stroke-dashoffset: 0; stroke-linejoin: miter; stroke-miterlimit: 4; fill: rgb(0,0,0); fill-rule: nonzero; opacity: 1;" vector-effect="non-scaling-stroke"  transform=" translate(-4643.47, -3744.67)" d="M 4564 3885 C 4560 3876 4569 3843 4583 3812 C 4598 3780 4617 3729 4626 3698 C 4646 3631 4691 3580 4713 3598 C 4724 3607 4726 3634 4722 3717 C 4720 3777 4713 3831 4708 3838 C 4702 3844 4683 3850 4665 3850 C 4644 3850 4620 3859 4601 3876 C 4574 3899 4569 3900 4564 3885 z" stroke-linecap="round" />
</g>
		<g transform="matrix(0.13 0 0 -0.13 174.43 23.14)"  >
<path style="stroke: none; stroke-width: 1; stroke-dasharray: none; stroke-linecap: butt; stroke-dashoffset: 0; stroke-linejoin: miter; stroke-miterlimit: 4; fill: rgb(0,0,0); fill-rule: nonzero; opacity: 1;" vector-effect="non-scaling-stroke"  transform=" translate(-5057.99, -3575.9)" d="M 4985 3879 C 4974 3849 5032 3363 5055 3290 C 5062 3269 5084 3258 5105 3266 C 5131 3276 5138 3332 5128 3461 C 5123 3529 5115 3641 5111 3710 C 5104 3834 5092 3880 5066 3880 C 5059 3880 5039 3883 5021 3886 C 5000 3891 4989 3888 4985 3879 z" stroke-linecap="round" />
</g>
		<g transform="matrix(0.13 0 0 -0.13 -98.92 14.5)"  >
<path style="stroke: none; stroke-width: 1; stroke-dasharray: none; stroke-linecap: butt; stroke-dashoffset: 0; stroke-linejoin: miter; stroke-miterlimit: 4; fill: rgb(0,0,0); fill-rule: nonzero; opacity: 1;" vector-effect="non-scaling-stroke"  transform=" translate(-3007.86, -3640.67)" d="M 3056 3839 C 3042 3822 3030 3802 3030 3795 C 3030 3787 3005 3755 2974 3724 C 2899 3646 2820 3477 2841 3438 C 2854 3414 2896 3405 2916 3421 C 2925 3428 2952 3477 2977 3530 C 3074 3736 3075 3737 3078 3712 C 3080 3699 3068 3656 3051 3615 C 3018 3536 3006 3440 3027 3419 C 3039 3407 3043 3413 3144 3576 C 3191 3652 3189 3810 3141 3810 C 3129 3810 3118 3821 3111 3840 C 3098 3878 3088 3878 3056 3839 z" stroke-linecap="round" />
</g>
		<g transform="matrix(0.13 0 0 -0.13 339.24 60.72)"  >
<path style="stroke: none; stroke-width: 1; stroke-dasharray: none; stroke-linecap: butt; stroke-dashoffset: 0; stroke-linejoin: miter; stroke-miterlimit: 4; fill: rgb(0,0,0); fill-rule: nonzero; opacity: 1;" vector-effect="non-scaling-stroke"  transform=" translate(-6294.03, -3294.02)" d="M 5946 3848 C 5930 3785 5943 3670 5970 3650 C 5973 3647 5998 3602 6025 3550 C 6051 3498 6084 3439 6096 3420 C 6109 3401 6120 3381 6120 3375 C 6120 3369 6133 3343 6150 3317 C 6179 3271 6259 3129 6350 2959 C 6376 2911 6418 2843 6444 2806 C 6482 2753 6498 2739 6530 2730 C 6607 2709 6657 2746 6648 2818 C 6639 2879 6557 3039 6489 3128 C 6454 3174 6416 3226 6405 3244 C 6338 3353 6212 3566 6185 3615 C 6173 3637 6139 3695 6109 3743 C 6061 3821 6051 3832 6015 3842 C 5993 3848 5970 3857 5964 3862 C 5956 3867 5950 3862 5946 3848 z" stroke-linecap="round" />
</g>
		<g transform="matrix(0.13 0 0 -0.13 101.55 8.6)"  >
<path style="stroke: none; stroke-width: 1; stroke-dasharray: none; stroke-linecap: butt; stroke-dashoffset: 0; stroke-linejoin: miter; stroke-miterlimit: 4; fill: rgb(0,0,0); fill-rule: nonzero; opacity: 1;" vector-effect="non-scaling-stroke"  transform=" translate(-4511.38, -3684.96)" d="M 4459 3818 C 4406 3745 4404 3737 4433 3686 C 4447 3661 4466 3618 4475 3590 C 4488 3550 4499 3535 4525 3523 C 4556 3508 4561 3508 4584 3524 C 4619 3546 4617 3574 4574 3695 C 4554 3750 4533 3810 4527 3828 C 4513 3871 4496 3868 4459 3818 z" stroke-linecap="round" />
</g>
		<g transform="matrix(0.13 0 0 -0.13 62.79 18.04)"  >
<path style="stroke: none; stroke-width: 1; stroke-dasharray: none; stroke-linecap: butt; stroke-dashoffset: 0; stroke-linejoin: miter; stroke-miterlimit: 4; fill: rgb(0,0,0); fill-rule: nonzero; opacity: 1;" vector-effect="non-scaling-stroke"  transform=" translate(-4220.67, -3614.17)" d="M 4198 3823 C 4146 3764 4108 3568 4139 3512 C 4146 3499 4158 3466 4166 3439 C 4177 3401 4185 3390 4201 3390 C 4227 3390 4268 3431 4275 3467 C 4279 3482 4289 3518 4298 3545 C 4323 3626 4319 3677 4277 3763 C 4240 3842 4225 3853 4198 3823 z" stroke-linecap="round" />
</g>
		<g transform="matrix(0.13 0 0 -0.13 308.86 66.55)"  >
<path style="stroke: none; stroke-width: 1; stroke-dasharray: none; stroke-linecap: butt; stroke-dashoffset: 0; stroke-linejoin: miter; stroke-miterlimit: 4; fill: rgb(0,0,0); fill-rule: nonzero; opacity: 1;" vector-effect="non-scaling-stroke"  transform=" translate(-6066.21, -3250.31)" d="M 5724 3795 C 5720 3787 5724 3741 5731 3694 C 5741 3625 5750 3600 5775 3567 C 5825 3500 6037 3131 6078 3037 C 6089 3011 6110 2976 6123 2958 C 6136 2940 6171 2881 6201 2827 C 6244 2747 6262 2724 6292 2709 C 6334 2688 6362 2685 6391 2700 C 6431 2722 6437 2709 6106 3268 C 6036 3387 5963 3506 5944 3532 C 5926 3558 5897 3606 5880 3640 C 5854 3691 5753 3810 5735 3810 C 5732 3810 5727 3803 5724 3795 z" stroke-linecap="round" />
</g>
		<g transform="matrix(0.13 0 0 -0.13 22.53 24.17)"  >
<path style="stroke: none; stroke-width: 1; stroke-dasharray: none; stroke-linecap: butt; stroke-dashoffset: 0; stroke-linejoin: miter; stroke-miterlimit: 4; fill: rgb(0,0,0); fill-rule: nonzero; opacity: 1;" vector-effect="non-scaling-stroke"  transform=" translate(-3918.74, -3568.14)" d="M 3907 3776 C 3898 3766 3890 3749 3890 3737 C 3890 3725 3874 3688 3855 3655 C 3780 3527 3783 3536 3812 3476 C 3849 3402 3896 3350 3927 3350 C 3961 3350 4008 3402 4015 3448 C 4018 3468 4027 3508 4035 3535 C 4051 3589 4047 3624 4021 3655 C 4012 3666 3998 3687 3991 3702 C 3983 3717 3965 3744 3951 3761 C 3926 3791 3923 3792 3907 3776 z" stroke-linecap="round" />
</g>
		<g transform="matrix(0.13 0 0 -0.13 276.39 78.64)"  >
<path style="stroke: none; stroke-width: 1; stroke-dasharray: none; stroke-linecap: butt; stroke-dashoffset: 0; stroke-linejoin: miter; stroke-miterlimit: 4; fill: rgb(0,0,0); fill-rule: nonzero; opacity: 1;" vector-effect="non-scaling-stroke"  transform=" translate(-5822.65, -3159.63)" d="M 5466 3704 C 5463 3695 5464 3671 5469 3651 C 5474 3631 5481 3592 5485 3563 C 5490 3525 5503 3495 5536 3448 C 5560 3413 5588 3369 5599 3350 C 5609 3331 5647 3271 5683 3218 C 5719 3165 5753 3105 5760 3086 C 5766 3067 5790 3016 5814 2973 C 5948 2728 5953 2719 6005 2682 C 6082 2625 6123 2601 6142 2600 C 6168 2600 6189 2649 6178 2685 C 6173 2702 6163 2739 6155 2768 C 6138 2827 6109 2886 6050 2975 C 6010 3036 5997 3059 5895 3235 C 5864 3290 5813 3373 5782 3420 C 5751 3467 5711 3528 5692 3557 C 5662 3603 5610 3650 5530 3703 C 5499 3724 5474 3725 5466 3704 z" stroke-linecap="round" />
</g>
		<g transform="matrix(0.13 0 0 -0.13 -12.2 33.26)"  >
<path style="stroke: none; stroke-width: 1; stroke-dasharray: none; stroke-linecap: butt; stroke-dashoffset: 0; stroke-linejoin: miter; stroke-miterlimit: 4; fill: rgb(0,0,0); fill-rule: nonzero; opacity: 1;" vector-effect="non-scaling-stroke"  transform=" translate(-3658.23, -3500)" d="M 3593 3633 C 3547 3529 3546 3526 3570 3447 C 3597 3359 3628 3300 3649 3300 C 3676 3300 3716 3380 3740 3477 L 3762 3570 L 3735 3616 C 3699 3677 3675 3700 3646 3700 C 3627 3700 3617 3688 3593 3633 z" stroke-linecap="round" />
</g>
		<g transform="matrix(0.13 0 0 -0.13 241.37 81.19)"  >
<path style="stroke: none; stroke-width: 1; stroke-dasharray: none; stroke-linecap: butt; stroke-dashoffset: 0; stroke-linejoin: miter; stroke-miterlimit: 4; fill: rgb(0,0,0); fill-rule: nonzero; opacity: 1;" vector-effect="non-scaling-stroke"  transform=" translate(-5560.02, -3140.55)" d="M 5232 3631 C 5222 3625 5221 3607 5229 3549 C 5238 3473 5279 3384 5388 3193 C 5481 3032 5650 2790 5715 2724 C 5801 2638 5868 2617 5890 2670 C 5901 2696 5899 2704 5874 2747 C 5858 2774 5820 2847 5789 2910 C 5758 2973 5715 3047 5693 3073 C 5671 3099 5618 3185 5575 3263 C 5442 3504 5426 3524 5333 3586 C 5288 3616 5250 3640 5248 3640 C 5246 3640 5239 3636 5232 3631 z" stroke-linecap="round" />
</g>
		<g transform="matrix(0.13 0 0 -0.13 -40.03 44.62)"  >
<path style="stroke: none; stroke-width: 1; stroke-dasharray: none; stroke-linecap: butt; stroke-dashoffset: 0; stroke-linejoin: miter; stroke-miterlimit: 4; fill: rgb(0,0,0); fill-rule: nonzero; opacity: 1;" vector-effect="non-scaling-stroke"  transform=" translate(-3449.56, -3414.79)" d="M 3397 3602 C 3368 3571 3360 3530 3360 3420 C 3360 3298 3366 3273 3407 3236 C 3455 3192 3500 3209 3500 3272 C 3500 3285 3509 3309 3520 3325 C 3549 3369 3545 3422 3508 3499 C 3451 3618 3430 3638 3397 3602 z" stroke-linecap="round" />
</g>
		<g transform="matrix(0.13 0 0 -0.13 79.46 41.41)"  >
<path style="stroke: none; stroke-width: 1; stroke-dasharray: none; stroke-linecap: butt; stroke-dashoffset: 0; stroke-linejoin: miter; stroke-miterlimit: 4; fill: rgb(0,0,0); fill-rule: nonzero; opacity: 1;" vector-effect="non-scaling-stroke"  transform=" translate(-4345.73, -3438.87)" d="M 4340 3591 C 4335 3580 4330 3559 4330 3544 C 4330 3529 4321 3486 4309 3448 C 4291 3387 4290 3371 4300 3329 C 4318 3254 4334 3249 4363 3312 C 4391 3374 4408 3538 4391 3583 C 4379 3615 4355 3618 4340 3591 z" stroke-linecap="round" />
</g>
		<g transform="matrix(0.13 0 0 -0.13 42.49 64)"  >
<path style="stroke: none; stroke-width: 1; stroke-dasharray: none; stroke-linecap: butt; stroke-dashoffset: 0; stroke-linejoin: miter; stroke-miterlimit: 4; fill: rgb(0,0,0); fill-rule: nonzero; opacity: 1;" vector-effect="non-scaling-stroke"  transform=" translate(-4068.45, -3269.46)" d="M 4050 3461 C 4045 3450 4040 3431 4040 3418 C 4040 3405 4026 3368 4010 3335 C 3974 3263 3973 3231 4004 3164 C 4024 3120 4082 3060 4103 3060 C 4119 3060 4140 3112 4150 3175 C 4158 3231 4157 3260 4144 3320 C 4116 3454 4078 3511 4050 3461 z" stroke-linecap="round" />
</g>
		<g transform="matrix(0.13 0 0 -0.13 7.45 69.91)"  >
<path style="stroke: none; stroke-width: 1; stroke-dasharray: none; stroke-linecap: butt; stroke-dashoffset: 0; stroke-linejoin: miter; stroke-miterlimit: 4; fill: rgb(0,0,0); fill-rule: nonzero; opacity: 1;" vector-effect="non-scaling-stroke"  transform=" translate(-3805.6, -3225.09)" d="M 3760 3387 C 3760 3380 3747 3339 3730 3297 C 3689 3191 3691 3164 3741 3101 C 3763 3073 3786 3050 3792 3050 C 3797 3050 3821 3061 3845 3075 C 3896 3105 3910 3137 3910 3219 C 3909 3273 3907 3277 3851 3338 C 3796 3396 3760 3416 3760 3387 z" stroke-linecap="round" />
</g>
		<g transform="matrix(0.13 0 0 -0.13 -22.4 81.41)"  >
<path style="stroke: none; stroke-width: 1; stroke-dasharray: none; stroke-linecap: butt; stroke-dashoffset: 0; stroke-linejoin: miter; stroke-miterlimit: 4; fill: rgb(0,0,0); fill-rule: nonzero; opacity: 1;" vector-effect="non-scaling-stroke"  transform=" translate(-3581.77, -3138.85)" d="M 3566 3269 C 3563 3252 3549 3216 3536 3189 C 3508 3135 3486 3032 3496 3006 C 3505 2982 3531 2971 3556 2980 C 3588 2992 3670 3079 3670 3101 C 3670 3112 3661 3152 3650 3192 C 3622 3295 3579 3334 3566 3269 z" stroke-linecap="round" />
</g>
		<g transform="matrix(0.13 0 0 -0.13 65.53 94.67)"  >
<path style="stroke: none; stroke-width: 1; stroke-dasharray: none; stroke-linecap: butt; stroke-dashoffset: 0; stroke-linejoin: miter; stroke-miterlimit: 4; fill: rgb(0,0,0); fill-rule: nonzero; opacity: 1;" vector-effect="non-scaling-stroke"  transform=" translate(-4241.22, -3039.41)" d="M 4217 3283 C 4213 3280 4210 3253 4210 3223 C 4210 3188 4201 3148 4184 3107 C 4165 3061 4159 3034 4162 3000 C 4170 2918 4243 2790 4282 2790 C 4308 2790 4320 2846 4321 2980 C 4322 3091 4319 3114 4296 3179 C 4265 3268 4238 3304 4217 3283 z" stroke-linecap="round" />
</g>
		<g transform="matrix(0.13 0 0 -0.13 87.27 88.98)"  >
<path style="stroke: none; stroke-width: 1; stroke-dasharray: none; stroke-linecap: butt; stroke-dashoffset: 0; stroke-linejoin: miter; stroke-miterlimit: 4; fill: rgb(0,0,0); fill-rule: nonzero; opacity: 1;" vector-effect="non-scaling-stroke"  transform=" translate(-4404.27, -3082.09)" d="M 4359 3224 C 4349 3212 4349 3200 4358 3164 C 4365 3140 4370 3095 4370 3065 C 4370 3023 4376 3002 4396 2973 C 4426 2928 4448 2913 4455 2932 C 4464 2956 4443 3165 4427 3203 C 4410 3243 4382 3252 4359 3224 z" stroke-linecap="round" />
</g>
		<g transform="matrix(0.13 0 0 -0.13 -56.74 94.36)"  >
<path style="stroke: none; stroke-width: 1; stroke-dasharray: none; stroke-linecap: butt; stroke-dashoffset: 0; stroke-linejoin: miter; stroke-miterlimit: 4; fill: rgb(0,0,0); fill-rule: nonzero; opacity: 1;" vector-effect="non-scaling-stroke"  transform=" translate(-3324.22, -3041.75)" d="M 3314 3193 C 3291 3128 3266 3085 3230 3050 C 3189 3010 3188 3007 3195 2962 C 3212 2849 3234 2848 3339 2957 C 3405 3025 3430 3057 3444 3098 C 3466 3163 3461 3180 3417 3180 C 3399 3180 3380 3184 3375 3189 C 3369 3194 3355 3201 3342 3205 C 3326 3210 3318 3207 3314 3193 z" stroke-linecap="round" />
</g>
		<g transform="matrix(0.13 0 0 -0.13 33.71 108.26)"  >
<path style="stroke: none; stroke-width: 1; stroke-dasharray: none; stroke-linecap: butt; stroke-dashoffset: 0; stroke-linejoin: miter; stroke-miterlimit: 4; fill: rgb(0,0,0); fill-rule: nonzero; opacity: 1;" vector-effect="non-scaling-stroke"  transform=" translate(-4002.58, -2937.47)" d="M 3920 3130 C 3890 3100 3893 3020 3929 2917 C 3966 2810 3983 2777 4016 2751 C 4046 2727 4085 2723 4093 2743 C 4106 2778 4110 2870 4100 2914 C 4093 2949 4076 2978 4044 3013 C 4019 3041 3990 3081 3979 3101 C 3954 3150 3945 3155 3920 3130 z" stroke-linecap="round" />
</g>
		<g transform="matrix(0.13 0 0 -0.13 -13.01 114.01)"  >
<path style="stroke: none; stroke-width: 1; stroke-dasharray: none; stroke-linecap: butt; stroke-dashoffset: 0; stroke-linejoin: miter; stroke-miterlimit: 4; fill: rgb(0,0,0); fill-rule: nonzero; opacity: 1;" vector-effect="non-scaling-stroke"  transform=" translate(-3652.2, -2894.37)" d="M 3635 2998 C 3565 2920 3557 2899 3565 2821 C 3575 2726 3584 2720 3636 2775 C 3660 2800 3680 2822 3680 2825 C 3680 2827 3694 2851 3711 2878 C 3743 2931 3751 2990 3731 3028 C 3713 3063 3685 3054 3635 2998 z" stroke-linecap="round" />
</g>
		<g transform="matrix(0.13 0 0 -0.13 -51.96 132.79)"  >
<path style="stroke: none; stroke-width: 1; stroke-dasharray: none; stroke-linecap: butt; stroke-dashoffset: 0; stroke-linejoin: miter; stroke-miterlimit: 4; fill: rgb(0,0,0); fill-rule: nonzero; opacity: 1;" vector-effect="non-scaling-stroke"  transform=" translate(-3360.03, -2753.48)" d="M 3423 2928 C 3413 2917 3375 2883 3338 2853 C 3261 2792 3244 2764 3235 2694 C 3231 2654 3234 2638 3253 2605 C 3291 2540 3319 2549 3401 2650 C 3470 2736 3500 2827 3481 2896 C 3468 2946 3449 2956 3423 2928 z" stroke-linecap="round" />
</g>
		<g transform="matrix(0.13 0 0 -0.13 -83.77 130.53)"  >
<path style="stroke: none; stroke-width: 1; stroke-dasharray: none; stroke-linecap: butt; stroke-dashoffset: 0; stroke-linejoin: miter; stroke-miterlimit: 4; fill: rgb(0,0,0); fill-rule: nonzero; opacity: 1;" vector-effect="non-scaling-stroke"  transform=" translate(-3121.5, -2770.49)" d="M 3126 2901 C 3117 2891 3098 2850 3084 2809 C 3070 2768 3051 2714 3042 2687 C 3031 2653 3029 2637 3037 2629 C 3054 2612 3087 2628 3111 2663 C 3123 2681 3151 2714 3173 2737 C 3218 2784 3221 2806 3192 2873 C 3170 2924 3153 2931 3126 2901 z" stroke-linecap="round" />
</g>
		<g transform="matrix(0.13 0 0 -0.13 95.59 152.67)"  >
<path style="stroke: none; stroke-width: 1; stroke-dasharray: none; stroke-linecap: butt; stroke-dashoffset: 0; stroke-linejoin: miter; stroke-miterlimit: 4; fill: rgb(0,0,0); fill-rule: nonzero; opacity: 1;" vector-effect="non-scaling-stroke"  transform=" translate(-4466.7, -2604.45)" d="M 4368 2883 C 4347 2857 4328 2746 4336 2692 C 4344 2633 4360 2603 4400 2565 C 4418 2549 4448 2503 4466 2463 C 4501 2387 4562 2310 4588 2310 C 4600 2310 4602 2319 4596 2363 C 4592 2391 4585 2456 4581 2505 C 4570 2625 4544 2692 4473 2785 C 4441 2827 4411 2871 4405 2881 C 4393 2904 4387 2905 4368 2883 z" stroke-linecap="round" />
</g>
		<g transform="matrix(0.13 0 0 -0.13 60.51 147.75)"  >
<path style="stroke: none; stroke-width: 1; stroke-dasharray: none; stroke-linecap: butt; stroke-dashoffset: 0; stroke-linejoin: miter; stroke-miterlimit: 4; fill: rgb(0,0,0); fill-rule: nonzero; opacity: 1;" vector-effect="non-scaling-stroke"  transform=" translate(-4203.59, -2641.33)" d="M 4165 2831 C 4158 2818 4143 2738 4134 2655 C 4129 2614 4133 2594 4154 2545 C 4185 2476 4206 2450 4231 2450 C 4255 2450 4259 2467 4266 2600 C 4269 2663 4273 2717 4275 2720 C 4277 2724 4255 2753 4226 2785 C 4191 2823 4170 2838 4165 2831 z" stroke-linecap="round" />
</g>
		<g transform="matrix(0.13 0 0 -0.13 -42.17 161.77)"  >
<path style="stroke: none; stroke-width: 1; stroke-dasharray: none; stroke-linecap: butt; stroke-dashoffset: 0; stroke-linejoin: miter; stroke-miterlimit: 4; fill: rgb(0,0,0); fill-rule: nonzero; opacity: 1;" vector-effect="non-scaling-stroke"  transform=" translate(-3433.45, -2536.15)" d="M 3431 2620 C 3336 2508 3326 2488 3333 2432 C 3342 2354 3376 2343 3440 2396 C 3494 2442 3510 2475 3526 2572 C 3541 2668 3539 2710 3517 2709 C 3511 2709 3472 2669 3431 2620 z" stroke-linecap="round" />
</g>
		<g transform="matrix(0.13 0 0 -0.13 43.08 163.21)"  >
<path style="stroke: none; stroke-width: 1; stroke-dasharray: none; stroke-linecap: butt; stroke-dashoffset: 0; stroke-linejoin: miter; stroke-miterlimit: 4; fill: rgb(0,0,0); fill-rule: nonzero; opacity: 1;" vector-effect="non-scaling-stroke"  transform=" translate(-4072.87, -2525.4)" d="M 4006 2684 C 3994 2652 4001 2619 4039 2528 C 4060 2477 4081 2424 4084 2410 C 4087 2396 4096 2376 4104 2365 C 4117 2347 4120 2347 4134 2360 C 4147 2373 4148 2387 4140 2445 C 4119 2592 4071 2700 4027 2700 C 4019 2700 4009 2693 4006 2684 z" stroke-linecap="round" />
</g>
		<g transform="matrix(0.13 0 0 -0.13 -78.68 171.1)"  >
<path style="stroke: none; stroke-width: 1; stroke-dasharray: none; stroke-linecap: butt; stroke-dashoffset: 0; stroke-linejoin: miter; stroke-miterlimit: 4; fill: rgb(0,0,0); fill-rule: nonzero; opacity: 1;" vector-effect="non-scaling-stroke"  transform=" translate(-3159.63, -2466.17)" d="M 3113 2590 C 3065 2544 3060 2535 3060 2497 C 3060 2417 3100 2304 3132 2294 C 3157 2287 3171 2300 3220 2372 C 3264 2439 3269 2471 3245 2541 C 3231 2580 3186 2640 3171 2640 C 3168 2640 3141 2617 3113 2590 z" stroke-linecap="round" />
</g>
		<g transform="matrix(0.13 0 0 -0.13 81.74 180.31)"  >
<path style="stroke: none; stroke-width: 1; stroke-dasharray: none; stroke-linecap: butt; stroke-dashoffset: 0; stroke-linejoin: miter; stroke-miterlimit: 4; fill: rgb(0,0,0); fill-rule: nonzero; opacity: 1;" vector-effect="non-scaling-stroke"  transform=" translate(-4362.79, -2397.14)" d="M 4307 2573 C 4295 2559 4290 2536 4290 2494 C 4290 2393 4308 2259 4325 2234 C 4342 2207 4381 2202 4399 2224 C 4424 2254 4441 2341 4434 2398 C 4426 2464 4414 2489 4363 2548 C 4326 2590 4324 2591 4307 2573 z" stroke-linecap="round" />
</g>
		<g transform="matrix(0.13 0 0 -0.13 -90.01 198.6)"  >
<path style="stroke: none; stroke-width: 1; stroke-dasharray: none; stroke-linecap: butt; stroke-dashoffset: 0; stroke-linejoin: miter; stroke-miterlimit: 4; fill: rgb(0,0,0); fill-rule: nonzero; opacity: 1;" vector-effect="non-scaling-stroke"  transform=" translate(-3074.66, -2259.93)" d="M 3004 2405 C 2991 2371 3007 2214 3029 2158 C 3049 2106 3054 2100 3081 2100 C 3104 2100 3113 2107 3130 2140 C 3141 2161 3150 2187 3150 2197 C 3150 2207 3127 2248 3099 2289 C 3072 2330 3046 2376 3043 2392 C 3037 2422 3013 2430 3004 2405 z" stroke-linecap="round" />
</g>
		<g transform="matrix(0.13 0 0 -0.13 63.55 204.52)"  >
<path style="stroke: none; stroke-width: 1; stroke-dasharray: none; stroke-linecap: butt; stroke-dashoffset: 0; stroke-linejoin: miter; stroke-miterlimit: 4; fill: rgb(0,0,0); fill-rule: nonzero; opacity: 1;" vector-effect="non-scaling-stroke"  transform=" translate(-4226.4, -2215.57)" d="M 4170 2266 C 4170 2113 4178 2062 4208 2028 C 4232 2000 4249 2007 4255 2048 C 4259 2068 4268 2115 4275 2152 C 4282 2191 4285 2233 4281 2252 C 4272 2291 4235 2366 4220 2375 C 4215 2378 4210 2390 4210 2401 C 4210 2413 4203 2420 4190 2420 C 4171 2420 4170 2413 4170 2266 z" stroke-linecap="round" />
</g>
		<g transform="matrix(0.13 0 0 -0.13 -62.63 203.28)"  >
<path style="stroke: none; stroke-width: 1; stroke-dasharray: none; stroke-linecap: butt; stroke-dashoffset: 0; stroke-linejoin: miter; stroke-miterlimit: 4; fill: rgb(0,0,0); fill-rule: nonzero; opacity: 1;" vector-effect="non-scaling-stroke"  transform=" translate(-3280, -2224.86)" d="M 3278 2343 C 3250 2309 3210 2220 3210 2190 C 3210 2150 3234 2103 3259 2095 C 3315 2078 3350 2130 3350 2231 C 3350 2332 3315 2386 3278 2343 z" stroke-linecap="round" />
</g>
		<g transform="matrix(0.13 0 0 -0.13 -41.56 201.98)"  >
<path style="stroke: none; stroke-width: 1; stroke-dasharray: none; stroke-linecap: butt; stroke-dashoffset: 0; stroke-linejoin: miter; stroke-miterlimit: 4; fill: rgb(0,0,0); fill-rule: nonzero; opacity: 1;" vector-effect="non-scaling-stroke"  transform=" translate(-3438.02, -2234.6)" d="M 3417 2333 C 3382 2324 3372 2282 3384 2205 L 3396 2135 L 3433 2132 C 3473 2129 3473 2129 3484 2215 C 3487 2237 3492 2265 3495 2277 C 3500 2291 3495 2305 3481 2319 C 3460 2340 3451 2342 3417 2333 z" stroke-linecap="round" />
</g>
		<g transform="matrix(0.13 0 0 -0.13 105.37 213.53)"  >
<path style="stroke: none; stroke-width: 1; stroke-dasharray: none; stroke-linecap: butt; stroke-dashoffset: 0; stroke-linejoin: miter; stroke-miterlimit: 4; fill: rgb(0,0,0); fill-rule: nonzero; opacity: 1;" vector-effect="non-scaling-stroke"  transform=" translate(-4540, -2147.94)" d="M 4466 2324 C 4463 2315 4460 2293 4460 2274 C 4460 2255 4453 2223 4445 2203 C 4437 2184 4430 2149 4430 2127 C 4430 2091 4436 2081 4483 2037 C 4547 1976 4588 1950 4607 1957 C 4635 1968 4650 2018 4650 2097 C 4650 2165 4646 2180 4622 2215 C 4588 2266 4508 2340 4487 2340 C 4479 2340 4469 2333 4466 2324 z" stroke-linecap="round" />
</g>
		<g transform="matrix(0.13 0 0 -0.13 73.45 236.57)"  >
<path style="stroke: none; stroke-width: 1; stroke-dasharray: none; stroke-linecap: butt; stroke-dashoffset: 0; stroke-linejoin: miter; stroke-miterlimit: 4; fill: rgb(0,0,0); fill-rule: nonzero; opacity: 1;" vector-effect="non-scaling-stroke"  transform=" translate(-4300.67, -1975.16)" d="M 4281 2033 C 4233 1889 4222 1827 4241 1804 C 4281 1756 4337 1840 4351 1968 C 4355 2010 4362 2059 4366 2077 C 4375 2121 4364 2160 4342 2160 C 4329 2160 4315 2131 4281 2033 z" stroke-linecap="round" />
</g>
		<g transform="matrix(0.13 0 0 -0.13 -31.31 293.62)"  >
<path style="stroke: none; stroke-width: 1; stroke-dasharray: none; stroke-linecap: butt; stroke-dashoffset: 0; stroke-linejoin: miter; stroke-miterlimit: 4; fill: rgb(0,0,0); fill-rule: nonzero; opacity: 1;" vector-effect="non-scaling-stroke"  transform=" translate(-3514.89, -1547.28)" d="M 3164 2055 C 3144 2013 3134 1970 3129 1908 C 3122 1815 3103 1770 3072 1770 C 2982 1768 2922 1759 2848 1736 C 2728 1699 2726 1695 2735 1521 C 2739 1446 2746 1375 2751 1363 C 2759 1342 2807 1310 2831 1310 C 2839 1310 2840 1350 2835 1465 L 2828 1620 L 2870 1639 C 2909 1657 2940 1658 2940 1641 C 2940 1638 2933 1613 2925 1586 C 2914 1550 2912 1514 2916 1451 C 2922 1377 2926 1361 2948 1338 C 2962 1322 2982 1310 2993 1310 C 3010 1310 3011 1316 3004 1414 C 2995 1547 3000 1563 3053 1595 C 3134 1642 3159 1627 3160 1535 C 3160 1513 3167 1466 3176 1430 C 3190 1369 3197 1330 3199 1303 C 3200 1296 3214 1275 3231 1255 C 3255 1228 3270 1220 3295 1220 C 3314 1220 3331 1224 3334 1228 C 3342 1242 3301 1341 3274 1373 C 3246 1407 3245 1410 3265 1456 C 3284 1501 3316 1500 3313 1455 C 3310 1418 3332 1352 3364 1302 C 3386 1267 3395 1262 3462 1247 C 3502 1238 3566 1225 3603 1220 C 3640 1214 3729 1196 3800 1180 C 3871 1163 3979 1141 4040 1131 C 4167 1109 4195 1093 4184 1047 C 4173 995 4228 959 4263 998 C 4321 1062 4303 1301 4238 1314 C 4225 1316 4139 1334 4045 1354 C 3952 1373 3844 1394 3805 1400 C 3767 1405 3708 1417 3675 1424 C 3642 1432 3588 1445 3554 1453 C 3469 1472 3469 1472 3476 1538 C 3482 1590 3480 1599 3455 1628 C 3439 1648 3411 1665 3382 1674 C 3324 1691 3264 1725 3254 1748 C 3249 1757 3245 1821 3244 1890 C 3242 2053 3244 2041 3215 2080 L 3190 2113 L 3164 2055 z" stroke-linecap="round" />
</g>
		<g transform="matrix(0.13 0 0 -0.13 -335.6 259.46)"  >
<path style="stroke: none; stroke-width: 1; stroke-dasharray: none; stroke-linecap: butt; stroke-dashoffset: 0; stroke-linejoin: miter; stroke-miterlimit: 4; fill: rgb(0,0,0); fill-rule: nonzero; opacity: 1;" vector-effect="non-scaling-stroke"  transform=" translate(-1232.74, -1803.48)" d="M 1125 1953 C 1066 1931 1038 1927 945 1926 C 885 1925 823 1928 809 1932 C 792 1937 777 1935 764 1925 C 747 1912 746 1910 761 1895 C 770 1886 809 1871 848 1860 C 914 1844 1010 1795 1010 1778 C 1010 1766 1181 1670 1233 1653 C 1274 1640 1310 1638 1456 1643 C 1564 1647 1631 1646 1635 1640 C 1638 1634 1652 1630 1666 1630 C 1684 1630 1690 1635 1690 1651 C 1690 1662 1697 1696 1706 1726 C 1727 1799 1714 1820 1639 1838 C 1609 1844 1565 1861 1540 1874 C 1357 1971 1356 1972 1274 1976 C 1207 1979 1185 1976 1125 1953 z M 1367 1847 C 1381 1834 1382 1824 1374 1793 L 1365 1755 L 1313 1756 C 1215 1759 1145 1819 1197 1858 C 1223 1877 1344 1870 1367 1847 z" stroke-linecap="round" />
</g>
		<g transform="matrix(0.13 0 0 -0.13 122.91 318.99)"  >
<path style="stroke: none; stroke-width: 1; stroke-dasharray: none; stroke-linecap: butt; stroke-dashoffset: 0; stroke-linejoin: miter; stroke-miterlimit: 4; fill: rgb(0,0,0); fill-rule: nonzero; opacity: 1;" vector-effect="non-scaling-stroke"  transform=" translate(-4671.62, -1357.01)" d="M 4405 1958 C 4387 1909 4370 1840 4370 1814 C 4370 1781 4411 1654 4458 1545 C 4499 1448 4504 1419 4486 1376 C 4471 1339 4414 1303 4387 1313 C 4370 1319 4340 1302 4340 1286 C 4340 1259 4378 1239 4433 1237 C 4481 1235 4497 1228 4560 1185 C 4650 1123 4670 1098 4670 1048 C 4670 1008 4644 913 4629 895 C 4613 878 4620 869 4641 875 C 4662 882 4663 881 4656 809 C 4651 762 4652 739 4658 745 C 4675 763 4709 883 4716 950 C 4722 1013 4733 1040 4751 1040 C 4756 1040 4760 1034 4760 1026 C 4760 991 4854 964 4866 995 C 4874 1016 4862 1078 4847 1090 C 4840 1095 4822 1111 4805 1126 C 4789 1141 4765 1159 4753 1167 C 4719 1189 4725 1199 4768 1193 C 4818 1185 4835 1169 4878 1081 C 4915 1007 4915 1005 4915 883 C 4915 815 4918 760 4921 760 C 4925 760 4931 785 4935 816 C 4940 857 4949 880 4971 905 C 5000 938 5001 944 5003 1037 C 5004 1130 5003 1138 4974 1185 C 4938 1245 4879 1279 4792 1289 C 4671 1304 4670 1305 4580 1637 C 4541 1778 4515 1841 4466 1913 C 4452 1934 4440 1955 4440 1960 C 4440 1975 4410 1972 4405 1958 z" stroke-linecap="round" />
</g>
		<g transform="matrix(0.13 0 0 -0.13 -204.43 283.84)"  >
<path style="stroke: none; stroke-width: 1; stroke-dasharray: none; stroke-linecap: butt; stroke-dashoffset: 0; stroke-linejoin: miter; stroke-miterlimit: 4; fill: rgb(0,0,0); fill-rule: nonzero; opacity: 1;" vector-effect="non-scaling-stroke"  transform=" translate(-2216.54, -1620.64)" d="M 1766 1797 C 1734 1749 1718 1686 1725 1635 C 1732 1578 1740 1570 1795 1570 C 1817 1570 1862 1563 1895 1555 C 1928 1547 2025 1531 2110 1520 C 2195 1509 2299 1493 2340 1485 C 2381 1477 2429 1469 2445 1466 C 2462 1464 2519 1453 2574 1441 C 2691 1416 2675 1417 2694 1436 C 2725 1466 2707 1592 2667 1638 C 2643 1664 2616 1673 2445 1705 C 2374 1719 2270 1739 2215 1750 C 2160 1761 2061 1776 1995 1784 C 1928 1792 1862 1804 1846 1809 C 1804 1826 1782 1822 1766 1797 z" stroke-linecap="round" />
</g>
		<g transform="matrix(0.13 0 0 -0.13 -87.34 308.61)"  >
<path style="stroke: none; stroke-width: 1; stroke-dasharray: none; stroke-linecap: butt; stroke-dashoffset: 0; stroke-linejoin: miter; stroke-miterlimit: 4; fill: rgb(0,0,0); fill-rule: nonzero; opacity: 1;" vector-effect="non-scaling-stroke"  transform=" translate(-3094.69, -1434.87)" d="M 3059 1539 C 3040 1520 3038 1511 3044 1462 C 3052 1395 3075 1344 3107 1323 C 3125 1311 3134 1310 3143 1319 C 3152 1328 3150 1343 3135 1383 C 3125 1411 3113 1462 3110 1494 C 3104 1560 3092 1572 3059 1539 z" stroke-linecap="round" />
</g>
		<g transform="matrix(0.13 0 0 -0.13 81.58 358.54)"  >
<path style="stroke: none; stroke-width: 1; stroke-dasharray: none; stroke-linecap: butt; stroke-dashoffset: 0; stroke-linejoin: miter; stroke-miterlimit: 4; fill: rgb(0,0,0); fill-rule: nonzero; opacity: 1;" vector-effect="non-scaling-stroke"  transform=" translate(-4361.64, -1060.4)" d="M 4330 1188 C 4316 1158 4331 918 4346 913 C 4360 908 4370 941 4370 995 C 4370 1017 4377 1046 4385 1060 C 4413 1109 4396 1201 4357 1208 C 4347 1210 4336 1202 4330 1188 z" stroke-linecap="round" />
</g>
		<g transform="matrix(0.13 0 0 -0.13 103.61 351.09)"  >
<path style="stroke: none; stroke-width: 1; stroke-dasharray: none; stroke-linecap: butt; stroke-dashoffset: 0; stroke-linejoin: miter; stroke-miterlimit: 4; fill: rgb(0,0,0); fill-rule: nonzero; opacity: 1;" vector-effect="non-scaling-stroke"  transform=" translate(-4526.85, -1116.29)" d="M 4457 1203 C 4445 1181 4429 1088 4435 1071 C 4438 1059 4453 1048 4468 1044 C 4483 1041 4516 1034 4542 1028 C 4592 1016 4620 1026 4620 1057 C 4620 1075 4551 1154 4508 1186 C 4474 1211 4464 1215 4457 1203 z" stroke-linecap="round" />
</g>
		<g transform="matrix(0.13 0 0 -0.13 273.95 387.9)"  >
<path style="stroke: none; stroke-width: 1; stroke-dasharray: none; stroke-linecap: butt; stroke-dashoffset: 0; stroke-linejoin: miter; stroke-miterlimit: 4; fill: rgb(0,0,0); fill-rule: nonzero; opacity: 1;" vector-effect="non-scaling-stroke"  transform=" translate(-5804.38, -840.19)" d="M 5050 1053 C 5039 1038 5032 1020 5035 1012 C 5038 1005 5040 985 5040 970 C 5040 951 5047 937 5060 930 C 5093 912 5248 870 5373 844 C 5438 831 5496 818 5501 815 C 5506 812 5594 793 5697 774 C 5801 755 5935 726 5995 711 C 6056 695 6175 668 6260 651 C 6345 634 6437 616 6463 610 C 6520 598 6543 607 6565 650 C 6593 703 6560 731 6450 746 C 6425 749 6349 764 6280 780 C 6211 795 6101 820 6035 835 C 5969 850 5870 875 5815 890 C 5760 905 5681 923 5641 929 C 5600 935 5524 953 5471 969 C 5418 985 5348 1003 5315 1009 C 5282 1016 5219 1033 5175 1046 C 5131 1060 5090 1073 5083 1075 C 5076 1077 5061 1067 5050 1053 z" stroke-linecap="round" />
</g>
</g>
</g>
</svg>