<?xml version="1.0" encoding="UTF-8" standalone="no"?>
<svg
   viewBox="0 0 200 200"
   shape-rendering="geometricPrecision"
   version="1.1"
   id="svg29"
   sodipodi:docname="logo.svg"
   width="200"
   height="200"
   inkscape:version="1.1.2 (0a00cf5339, 2022-02-04)"
   xmlns:inkscape="http://www.inkscape.org/namespaces/inkscape"
   xmlns:sodipodi="http://sodipodi.sourceforge.net/DTD/sodipodi-0.dtd"
   xmlns="http://www.w3.org/2000/svg"
   xmlns:svg="http://www.w3.org/2000/svg"
   xmlns:rdf="http://www.w3.org/1999/02/22-rdf-syntax-ns#"
   xmlns:cc="http://creativecommons.org/ns#"
   xmlns:dc="http://purl.org/dc/elements/1.1/">
  <defs
     id="defs33" />
  <sodipodi:namedview
     id="namedview31"
     pagecolor="#ffffff"
     bordercolor="#000000"
     borderopacity="0.25"
     inkscape:pageshadow="2"
     inkscape:pageopacity="0.0"
     inkscape:pagecheckerboard="0"
     showgrid="false"
     inkscape:zoom="4.3608108"
     inkscape:cx="13.070964"
     inkscape:cy="105.82894"
     inkscape:window-width="3440"
     inkscape:window-height="1372"
     inkscape:window-x="0"
     inkscape:window-y="0"
     inkscape:window-maximized="1"
     inkscape:current-layer="svg29"
     width="51px"
     fit-margin-top="0"
     fit-margin-left="0"
     fit-margin-right="0"
     fit-margin-bottom="0" />
  <title
     id="title25">Science</title>
  <g
     id="g191">
    <path
       d="m 12.230102,121.67832 -2.10237,3.29462 H 7.894022 L 7.5,108.49988 h 1.576639 c 2.759073,7.51168 6.832104,14.62796 14.978349,14.62796 5.780827,0 8.671424,-3.55814 8.671424,-8.82934 0,-4.34892 -2.102185,-7.51167 -6.437897,-9.35677 -3.678825,-1.58119 -6.175217,-2.50383 -9.854226,-4.21688 -4.861258,-2.24048 -7.751855,-6.19383 -7.751855,-12.38767 0,-7.51167 5.781194,-13.04658 13.53305,-13.04658 3.284619,0 7.489174,1.4497 9.854041,3.42647 l 1.970845,-3.16294 h 2.365051 L 36.799443,91.6318 H 35.222804 C 32.595072,83.59287 29.441793,77.5309 20.901526,77.5309 c -1.839321,0 -6.569422,1.71323 -6.569422,7.24814 0,4.34874 1.839504,6.7209 5.781194,9.09306 3.153279,1.8449 6.437898,2.76754 9.328495,4.21706 5.255464,2.63569 9.197154,5.53491 9.197154,12.78287 0,8.566 -6.438081,14.62797 -15.109689,14.62797 -5.518146,-0.39539 -9.328495,-2.10863 -11.29934,-3.82168 z M 40.21577,108.10467 c 0,-8.69766 5.518146,-16.73659 14.3211,-16.73659 6.56942,0 9.85404,3.82168 9.85404,8.1706 0,2.37216 -1.31378,3.95353 -3.54749,3.95353 -1.31377,0 -3.81016,-0.79078 -3.81016,-3.55814 0,-2.89922 0.78841,-3.03108 0.78841,-4.34874 -0.39421,-2.10862 -1.31396,-2.50401 -3.41615,-2.50401 -3.81035,0 -7.35783,3.69 -7.35783,14.36443 0,8.56581 3.02194,14.49611 8.54027,14.49611 4.33589,0 6.96363,-2.24049 8.93447,-6.32569 l 1.4453,1.05431 c -2.36505,4.61245 -6.83229,8.43413 -11.82507,8.43413 -9.328496,0 -13.927073,-7.24796 -13.927073,-17.00012 z M 69.7779,78.9806 c 0,-2.37216 1.8395,-4.4806 4.20437,-4.4806 2.62773,0 4.33589,1.84491 4.33589,4.21707 0,2.50383 -1.8395,4.61227 -4.33589,4.61227 -2.36487,0 -4.20437,-1.97677 -4.20437,-4.34874 z m -3.02176,43.75185 c 1.05091,-0.13167 1.97066,-0.26353 2.89041,-0.52706 1.18244,-0.39539 1.70798,-1.71324 1.70798,-3.16276 V 98.7479 C 71.22319,97.29838 70.69765,95.98054 69.64655,95.18994 68.85814,94.66288 66.88748,93.8721 65.83621,93.8721 v -1.31785 l 11.43086,-0.79078 0.39402,0.52706 v 26.3569 c 0,1.44952 0.65707,2.6355 1.70816,3.29443 0.91976,0.52706 2.10219,0.79059 2.89042,0.79059 v 1.4497 H 66.8873 v -1.4497 h -0.13134 z m 34.02936,-18.84503 c 0,-5.13934 -0.91975,-10.8061 -5.38699,-10.8061 -3.81016,0 -6.56942,4.34874 -6.70076,11.06982 l 12.08775,-0.26354 z m -18.91985,4.08539 c 0,-8.43413 4.99278,-16.60473 13.53286,-16.60473 8.80295,0 12.08775,6.32569 12.08775,13.57365 v 0.65893 H 88.69775 v 0.79078 c 0,9.09305 2.62773,15.55042 9.19715,15.55042 4.73011,0 6.43809,-1.97677 8.80295,-6.32569 l 1.31396,0.79078 c -2.23371,5.00784 -6.56942,8.56599 -11.82489,8.56599 -9.72288,0.13167 -14.32127,-7.64336 -14.32127,-17.00013 z m 26.40661,14.45125 c 1.04145,-0.1303 1.95276,-0.26078 2.86389,-0.52156 1.17176,-0.39125 1.69249,-1.56485 1.69249,-3.1297 V 98.69014 c -0.13032,-1.43437 -0.65104,-2.86874 -1.69249,-3.65126 -0.65086,-0.52155 -2.08289,-1.04311 -3.12434,-1.17359 v -1.30407 l 10.54478,-0.78252 0.52072,0.52156 v 4.69473 h 0.13014 c 2.47348,-2.60814 4.81682,-5.73785 10.02406,-5.73785 5.72795,0 8.46188,4.43378 8.46188,11.08444 v 16.17044 c 0,1.56467 0.52054,2.60815 1.56217,3.12971 0.91131,0.39125 1.69231,0.65203 2.86407,0.78233 v 1.43455 h -15.36142 v -1.43455 c 1.04126,-0.1303 2.08271,-0.26078 2.86388,-0.52156 1.17158,-0.39125 1.69231,-1.56485 1.69231,-3.1297 v -16.56151 c 0,-4.82504 -2.34317,-7.43319 -4.94696,-7.43319 -4.29592,0 -6.7694,2.86893 -7.42044,4.56426 v 19.039 c 0,1.56485 0.5209,2.60815 1.56235,3.1297 0.78099,0.52156 1.95275,0.78252 2.86407,0.78252 v 1.43437 h -15.23166 v -1.30407 h 0.13032 z m 32.67561,-14.47492 c 0,-8.60678 5.46768,-16.5617 14.18984,-16.5617 6.50913,0 9.76378,3.78174 9.76378,8.08522 0,2.34737 -1.3019,3.91222 -3.51492,3.91222 -1.3019,0 -3.77538,-0.78252 -3.77538,-3.52096 0,-2.86893 0.78117,-2.99941 0.78117,-4.3033 -0.39058,-2.08659 -1.3019,-2.47785 -3.38479,-2.47785 -3.7752,0 -7.29012,3.65144 -7.29012,14.21433 0,8.47629 2.99402,14.34462 8.4617,14.34462 4.29611,0 6.8999,-2.21707 8.85248,-6.25958 l 1.43203,1.04329 c -2.34334,4.56426 -6.76958,8.346 -11.71636,8.346 -9.24306,0 -13.79943,-7.17222 -13.79943,-16.82248 z m 44.39232,-4.17318 c 0,-5.08564 -0.91149,-10.69319 -5.33755,-10.69319 -3.77537,0 -6.50912,4.3033 -6.63944,10.95415 l 11.97681,-0.26078 z m -18.74639,4.0427 c 0,-8.346 4.94696,-16.43122 13.40884,-16.43122 8.72216,0 11.97664,6.25959 11.97664,13.43181 v 0.65204 H 173.3632 v 0.78251 c 0,8.99804 2.6038,15.38792 9.11274,15.38792 4.68669,0 6.379,-1.95611 8.72234,-6.25958 l 1.30172,0.78251 c -2.21321,4.95552 -6.50913,8.47648 -11.71636,8.47648 -9.76361,0.1303 -14.18984,-7.56348 -14.18984,-16.82247 z"
       id="path27" />
  </g>
  <metadata
     id="metadata182">
    <rdf:RDF>
      <cc:Work
         rdf:about="">
        <dc:title>Science</dc:title>
      </cc:Work>
    </rdf:RDF>
  </metadata>
</svg>
